<?xml version="1.0" encoding="UTF-8"?>
<svg width="80px" height="80px" viewBox="0 0 80 80" version="1.1" xmlns="http://www.w3.org/2000/svg" xmlns:xlink="http://www.w3.org/1999/xlink">
    <!-- Generator: Sketch 59.1 (86144) - https://sketch.com -->
    <title>icons/csv/backslash</title>
    <desc>Created with Sketch.</desc>
    <g id="icons/csv/backslash" stroke="none" stroke-width="1" fill="none" fill-rule="evenodd">
        <g id="convert-csv-icons-03" transform="translate(3.000000, 2.000000)" fill="#176332" fill-rule="nonzero">
            <path d="M66.6,64.3867925 L7.4,64.3867925 C3.31590476,64.3867925 0,60.495283 0,55.7334906 L0,8.65330189 C0,3.89150943 3.32295238,0 7.4,0 L66.6,0 C70.6840952,0 74,3.89150943 74,8.65330189 L74,55.7334906 C74,60.495283 70.6770476,64.3867925 66.6,64.3867925 Z M7.4,3.18396226 C5.10247619,3.18396226 3.17142857,5.68867925 3.17142857,8.65330189 L3.17142857,55.7334906 C3.17142857,58.6981132 5.10952381,61.2028302 7.4,61.2028302 L66.6,61.2028302 C68.8975238,61.2028302 70.8285714,58.6981132 70.8285714,55.7334906 L70.8285714,8.65330189 C70.8285714,5.68867925 68.8904762,3.18396226 66.6,3.18396226 L7.4,3.18396226 Z" id="Shape"></path>
            <path d="M51.8211429,75 L22.1788571,75 C19.8566667,75 17.9714246,73.0153302 17.9714246,70.5778302 L17.9714246,69.1627358 C17.9704902,68.7402281 18.1372547,68.3347539 18.4348375,68.0359951 C18.7324203,67.7372362 19.1362983,67.5698127 19.5571429,67.5707547 L27.7429524,67.5707547 L29.9030476,64.0790094 C30.1924711,63.6100155 30.7031281,63.3248985 31.2526667,63.3254708 L42.6380952,63.3254708 C43.1876338,63.3248985 43.6982908,63.6100155 43.9877143,64.0790094 L46.1478095,67.5707547 L54.4428571,67.5707547 C54.8637017,67.5698127 55.2675797,67.7372362 55.5651625,68.0359951 C55.8627453,68.3347539 56.0295098,68.7402281 56.0285754,69.1627358 L56.0285754,70.5778302 C56.0285754,73.0153302 54.1433333,75 51.8211429,75 Z M21.1428571,70.754717 C21.1770268,71.314035 21.6124683,71.7647178 22.1682857,71.8160377 L51.8105714,71.8160377 C52.3663889,71.7647178 52.8018303,71.314035 52.836,70.754717 L45.2527619,70.754717 C44.7043004,70.7547475 44.1949449,70.4696127 43.9066667,70.0011792 L41.7465714,66.509434 L32.133619,66.509434 L29.9735238,70.0011792 C29.6852456,70.4696127 29.1758901,70.7547475 28.6274286,70.754717 L21.1428571,70.754717 Z" id="Shape"></path>
            <path d="M67.6571429,48.8207547 L6.6952381,48.8207547 C6.11139422,48.8207547 5.63809524,48.3455852 5.63809524,47.759434 L5.63809524,6.72169811 C5.63809524,6.13554685 6.11139422,5.66037736 6.6952381,5.66037736 L67.6571429,5.66037736 C68.2409867,5.66037736 68.7142857,6.13554685 68.7142857,6.72169811 L68.7142857,47.759434 C68.7142857,48.3455852 68.2409867,48.8207547 67.6571429,48.8207547 L67.6571429,48.8207547 Z M7.75238095,46.6981132 L66.6,46.6981132 L66.6,7.78301887 L7.75238095,7.78301887 L7.75238095,46.6981132 Z" id="Shape"></path>
            <path d="M41.7571429,37.2205189 C41.1877379,37.2199614 40.6621419,36.913614 40.3793333,36.4174528 L30.8650476,19.7900943 C30.4271647,19.0261439 30.6890568,18.0504625 31.45,17.6108491 C32.2109432,17.1712356 33.1827838,17.4341627 33.6206667,18.1981132 L43.1349524,34.8254717 C43.4152191,35.3200411 43.4132587,35.9267233 43.1298017,36.4194568 C42.8463447,36.9121902 42.3239009,37.2170802 41.7571429,37.2205189 L41.7571429,37.2205189 Z" id="Path"></path>
            <path d="M37,44.2216981 C27.6584979,44.2216981 20.0857143,36.6189863 20.0857143,27.240566 C20.0857143,17.8621458 27.6584979,10.259434 37,10.259434 C46.3415021,10.259434 53.9142857,17.8621458 53.9142857,27.240566 C53.9007006,36.6133311 46.3358691,44.2080593 37,44.2216981 Z M37,13.4433962 C29.4100296,13.4433962 23.2571429,19.6205996 23.2571429,27.240566 C23.2571429,34.8605325 29.4100296,41.0377358 37,41.0377358 C44.5899704,41.0377358 50.7428571,34.8605325 50.7428571,27.240566 C50.7428571,19.6205996 44.5899704,13.4433962 37,13.4433962 L37,13.4433962 Z" id="Shape"></path>
        </g>
    </g>
</svg>