<?xml version="1.0" encoding="UTF-8"?>
<svg width="80px" height="80px" viewBox="0 0 80 80" version="1.1" xmlns="http://www.w3.org/2000/svg" xmlns:xlink="http://www.w3.org/1999/xlink">
    <!-- Generator: Sketch 59.1 (86144) - https://sketch.com -->
    <title>icon/csv/checks</title>
    <desc>Created with Sketch.</desc>
    <g id="icon/csv/checks" stroke="none" stroke-width="1" fill="none" fill-rule="evenodd">
        <g id="convert-csv-icons-12" transform="translate(9.000000, 2.000000)" fill="#176332" fill-rule="nonzero">
            <path d="M31.8290286,39.4917926 C30.9256629,39.4960871 30.0562454,39.1483151 29.4057143,38.5224057 L18.3732571,27.8455189 C17.7166053,27.2134027 17.3456502,26.3417923 17.3456502,25.4310142 C17.3456502,24.520236 17.7166053,23.6486256 18.3732571,23.0165094 L20.3572571,21.0990566 C21.7125454,19.8074988 23.8450546,19.8074988 25.2003429,21.0990566 L31.9494857,27.629717 L42.3158857,17.5966981 C43.6723648,16.3046926 45.8060352,16.3046926 47.1625143,17.5966981 L49.0260571,19.3974057 C49.682709,20.0295219 50.0536641,20.9011322 50.0536641,21.8119104 C50.0536641,22.7226885 49.682709,23.5942989 49.0260571,24.2264151 L34.2523429,38.5224057 C33.6020194,39.1486357 32.7324657,39.4964622 31.8290286,39.4917926 Z M22.7770286,23.3101415 C22.7020534,23.3083845 22.629437,23.3363714 22.5750857,23.3879717 L20.5946286,25.3054245 C20.5570366,25.3371702 20.5350674,25.383626 20.5344,25.432783 C20.5350446,25.4811933 20.5555322,25.5272239 20.5910857,25.5601415 L31.6235429,36.2370283 C31.7427816,36.3355126 31.9152755,36.3355126 32.0345143,36.2370283 L46.8046857,21.9339623 C46.8423804,21.9023697 46.8641494,21.8557452 46.8641494,21.8066038 C46.8641494,21.7574624 46.8423804,21.7108379 46.8046857,21.6792453 L44.9446857,19.8785377 C44.828237,19.7761308 44.6537058,19.7761308 44.5372571,19.8785377 L31.9494857,32.0625 L22.9825143,23.3879717 C22.9270753,23.3358286 22.8531528,23.3078295 22.7770286,23.3101415 L22.7770286,23.3101415 Z" id="Shape"></path>
            <path d="M7.1672,75.0001295 C5.82274843,75.003086 4.50657828,74.6145841 3.37988571,73.8820755 C1.86163278,72.8995059 0.810986855,71.3405106 0.4712,69.5660377 C0.127866396,67.8247524 0.511810594,66.0189893 1.53405714,64.567217 L14.0722286,46.7441038 L15.3618286,47.6816038 L16.6620571,48.6014151 L4.15222857,66.3891509 C3.62770769,67.1367304 3.42953343,68.064888 3.60308571,68.9610849 C3.7850965,69.8888344 4.33606227,70.7032382 5.13005714,71.2181604 C6.21456025,71.9086178 7.57443854,72.0070365 8.74731429,71.4799528 C9.29845349,71.1340932 9.81043307,70.7296091 10.2742857,70.2735849 C14.5930286,64.1320755 22.8124571,52.4398585 23.0285714,52.1426887 L24.2012571,52.9492925 L25.6963429,53.8832547 C25.668,53.932783 25.6290286,53.9929245 12.8924571,72.1025943 C12.3008,72.9481132 10.8482286,73.928066 10.4124571,74.2252358 L10.2246857,74.3278302 C9.26846129,74.7767211 8.2238036,75.0063828 7.1672,75.0001295 Z" id="Path"></path>
            <path d="M33.6571429,56.25 C18.0296,56.25 5.31428571,43.634434 5.31428571,28.125 C5.31428571,12.615566 18.0296,0 33.6571429,0 C49.2846857,0 62,12.615566 62,28.125 C62,43.634434 49.2846857,56.25 33.6571429,56.25 Z M33.6571429,3.18396226 C19.7868571,3.18396226 8.50285714,14.3738208 8.50285714,28.125 C8.50285714,41.8761792 19.7868571,53.0660377 33.6571429,53.0660377 C47.5274286,53.0660377 58.8114286,41.8761792 58.8114286,28.125 C58.8114286,14.3738208 47.5274286,3.18396226 33.6571429,3.18396226 Z" id="Shape"></path>
        </g>
    </g>
</svg>