<?xml version="1.0" encoding="UTF-8"?>
<svg width="95px" height="95px" viewBox="0 0 95 95" version="1.1" xmlns="http://www.w3.org/2000/svg" xmlns:xlink="http://www.w3.org/1999/xlink">
    <!-- Generator: Sketch 59.1 (86144) - https://sketch.com -->
    <title>Icon/CSVtoFile</title>
    <desc>Created with Sketch.</desc>
    <defs>
        <path d="M26.25,15.671875 L26.25,0 L2.8125,0 C1.25390625,0 0,1.23300781 0,2.765625 L0,56.234375 C0,57.7669922 1.25390625,59 2.8125,59 L42.1875,59 C43.7460937,59 45,57.7669922 45,56.234375 L45,18.4375 L29.0625,18.4375 C27.515625,18.4375 26.25,17.1929688 26.25,15.671875 Z M15.46875,32.5801471 C15.46875,33.0834908 15.0361084,33.4911765 14.5019531,33.4911765 L13.5351562,33.4911765 C12.4668457,33.4911765 11.6015625,34.3065478 11.6015625,35.3132353 L11.6015625,38.9573529 C11.6015625,39.9640404 12.4668457,40.7794118 13.5351562,40.7794118 L14.5019531,40.7794118 C15.0361084,40.7794118 15.46875,41.1870974 15.46875,41.6904412 L15.46875,43.5125 C15.46875,44.0158438 15.0361084,44.4235294 14.5019531,44.4235294 L13.5351562,44.4235294 C10.3314331,44.4235294 7.734375,41.9762767 7.734375,38.9573529 L7.734375,35.3132353 C7.734375,32.2943116 10.3314331,29.8470588 13.5351562,29.8470588 L14.5019531,29.8470588 C15.0361084,29.8470588 15.46875,30.2547445 15.46875,30.7580882 L15.46875,32.5801471 Z M18.6593875,44.4235294 C18.1213935,44.4235294 17.6856426,44.0158119 17.6856426,43.5124288 L17.6856426,41.6902276 C17.6856426,41.1868446 18.1213935,40.779127 18.6593875,40.779127 L20.1528688,40.779127 C20.8770915,40.779127 21.4199543,40.3805205 21.4199543,40.0251913 C21.4199543,39.8771375 21.3286657,39.7222504 21.1619119,39.587863 L18.4975024,37.4501933 C17.46655,36.627925 16.875,35.4594385 16.875,34.2453969 C16.875,31.8195916 19.1900785,29.8470588 22.0370651,29.8470588 L23.528112,29.8470588 C24.0661061,29.8470588 24.5018569,30.2547763 24.5018569,30.7581594 L24.5018569,32.5803606 C24.5018569,33.0837437 24.0661061,33.4914612 23.528112,33.4914612 L22.0346308,33.4914612 C21.310408,33.4914612 20.7675452,33.8900677 20.7675452,34.2453969 C20.7675452,34.3934508 20.8588338,34.5483379 21.0255876,34.6827252 L23.6899971,36.820395 C24.7209495,37.6426633 25.3125005,38.8111498 25.3125005,40.0251913 C25.3137167,42.4498578 22.9998554,44.4235294 20.1528688,44.4235294 L18.6593875,44.4235294 Z M29.765625,33.1267647 C29.765625,35.4350855 30.4335937,37.7012711 31.640625,39.6041838 C32.8476562,37.7024099 33.515625,35.4350855 33.515625,33.1267647 L33.515625,30.7580882 C33.515625,30.2547445 33.9351562,29.8470588 34.453125,29.8470588 L36.328125,29.8470588 C36.8460937,29.8470588 37.265625,30.2547445 37.265625,30.7580882 L37.265625,33.1267647 C37.265625,37.1671801 35.75625,40.9718667 33.0140625,43.8416094 C32.6601562,44.2117151 32.1621094,44.4235294 31.640625,44.4235294 C31.1191406,44.4235294 30.6210937,44.2117151 30.2671875,43.8416094 C27.525,40.9718667 26.015625,37.1671801 26.015625,33.1267647 L26.015625,30.7580882 C26.015625,30.2547445 26.4351562,29.8470588 26.953125,29.8470588 L28.828125,29.8470588 C29.3460937,29.8470588 29.765625,30.2547445 29.765625,30.7580882 L29.765625,33.1267647 Z M44.1925049,11.957261 L32.8991089,0.797150735 C32.3800049,0.284696691 31.6763306,0 30.9380493,0 L30.234375,0 L30.234375,14.5764706 L45,14.5764706 L45,13.8818107 C45,13.164375 44.7116089,12.4697151 44.1925049,11.957261 Z" id="path-1"></path>
        <filter x="-4.4%" y="-3.4%" width="108.9%" height="106.8%" filterUnits="objectBoundingBox" id="filter-2">
            <feGaussianBlur stdDeviation="1.5" in="SourceAlpha" result="shadowBlurInner1"></feGaussianBlur>
            <feOffset dx="0" dy="1" in="shadowBlurInner1" result="shadowOffsetInner1"></feOffset>
            <feComposite in="shadowOffsetInner1" in2="SourceAlpha" operator="arithmetic" k2="-1" k3="1" result="shadowInnerInner1"></feComposite>
            <feColorMatrix values="0 0 0 0 0   0 0 0 0 0   0 0 0 0 0  0 0 0 0.5 0" type="matrix" in="shadowInnerInner1"></feColorMatrix>
        </filter>
        <path d="M65.25,44.671875 L65.25,29 L41.8125,29 C40.2539062,29 39,30.2330078 39,31.765625 L39,85.234375 C39,86.7669922 40.2539062,88 41.8125,88 L81.1875,88 C82.7460937,88 84,86.7669922 84,85.234375 L84,47.4375 L68.0625,47.4375 C66.515625,47.4375 65.25,46.1929688 65.25,44.671875 Z M84,43.0470703 L84,43.75 L69,43.75 L69,29 L69.7148438,29 C70.4648438,29 71.1796875,29.2880859 71.7070312,29.8066406 L83.1796875,41.0996094 C83.7070312,41.6181641 84,42.3210938 84,43.0470703 Z" id="path-3"></path>
        <filter x="-11.1%" y="-8.5%" width="122.2%" height="116.9%" filterUnits="objectBoundingBox" id="filter-4">
            <feGaussianBlur stdDeviation="4" in="SourceAlpha" result="shadowBlurInner1"></feGaussianBlur>
            <feOffset dx="0" dy="2" in="shadowBlurInner1" result="shadowOffsetInner1"></feOffset>
            <feComposite in="shadowOffsetInner1" in2="SourceAlpha" operator="arithmetic" k2="-1" k3="1" result="shadowInnerInner1"></feComposite>
            <feColorMatrix values="0 0 0 0 0.165401787   0 0 0 0 0.0273421621   0 0 0 0 0.348958333  0 0 0 0.3 0" type="matrix" in="shadowInnerInner1"></feColorMatrix>
        </filter>
    </defs>
    <g id="Icon/CSVtoFile" stroke="none" stroke-width="1" fill="none" fill-rule="evenodd">
        <g id="Group-2" transform="translate(4.000000, 4.000000)">
            <g id="Group">
                <g id="Shape">
                    <use fill="#176332" fill-rule="evenodd" xlink:href="#path-1"></use>
                    <use fill="black" fill-opacity="1" filter="url(#filter-2)" xlink:href="#path-1"></use>
                    <path stroke="#094B21" stroke-width="1" d="M25.75,0.5 L2.8125,0.5 C1.5281851,0.5 0.5,1.51104868 0.5,2.765625 L0.5,56.234375 C0.5,57.4889513 1.5281851,58.5 2.8125,58.5 L42.1875,58.5 C43.4718149,58.5 44.5,57.4889513 44.5,56.234375 L44.5,18.9375 L29.0625,18.9375 C27.2413462,18.9375 25.75,17.4710096 25.75,15.671875 L25.75,0.5 Z M15.96875,32.5801471 C15.96875,33.3664932 15.3058276,33.9911765 14.5019531,33.9911765 L13.5351562,33.9911765 C12.7365649,33.9911765 12.1015625,34.5895502 12.1015625,35.3132353 L12.1015625,38.9573529 C12.1015625,39.681038 12.7365649,40.2794118 13.5351562,40.2794118 L14.5019531,40.2794118 C15.3058276,40.2794118 15.96875,40.904095 15.96875,41.6904412 L15.96875,43.5125 C15.96875,44.2988462 15.3058276,44.9235294 14.5019531,44.9235294 L13.5351562,44.9235294 C10.0617139,44.9235294 7.234375,42.2592791 7.234375,38.9573529 L7.234375,35.3132353 C7.234375,32.0113092 10.0617139,29.3470588 13.5351562,29.3470588 L14.5019531,29.3470588 C15.3058276,29.3470588 15.96875,29.9717421 15.96875,30.7580882 L15.96875,32.5801471 Z M20.9193725,40.0309591 C20.9162906,40.041267 20.9000414,40.018981 20.8490165,39.9778585 L18.1857318,37.8410885 C17.0385802,36.9261419 16.375,35.6154123 16.375,34.2453969 C16.375,31.5241178 18.9300954,29.3470588 22.0370651,29.3470588 L23.528112,29.3470588 C24.335091,29.3470588 25.0018569,29.9709294 25.0018569,30.7581594 L25.0018569,32.5803606 C25.0018569,33.3675906 24.335091,33.9914612 23.528112,33.9914612 L22.0346308,33.9914612 C21.6048685,33.9914612 21.2840906,34.1888169 21.2681657,34.2415927 C21.2712089,34.2293213 21.2874581,34.2516073 21.338483,34.2927298 L24.0017678,36.4294998 C25.1489196,37.3444466 25.8125005,38.6551763 25.8125004,40.0249405 C25.8138651,42.7455912 23.2594424,44.9235294 20.1528688,44.9235294 L18.6593875,44.9235294 C17.8524085,44.9235294 17.1856426,44.2996589 17.1856426,43.5124288 L17.1856426,41.6902276 C17.1856426,40.9029976 17.8524085,40.279127 18.6593875,40.279127 L20.1528688,40.279127 C20.582631,40.279127 20.9034089,40.0817714 20.9193338,40.0289956 Z M31.6407144,38.6128991 C32.5348616,36.9422622 33.015625,35.0428149 33.015625,33.1267647 L33.015625,30.7580882 C33.015625,29.9753465 33.662168,29.3470588 34.453125,29.3470588 L36.328125,29.3470588 C37.119082,29.3470588 37.765625,29.9753465 37.765625,30.7580882 L37.765625,33.1267647 C37.765625,37.2954866 36.2069084,41.2239851 33.375436,44.1871657 C32.9263855,44.6567707 32.297416,44.9235294 31.640625,44.9235294 C30.983834,44.9235294 30.3548645,44.6567707 29.9056915,44.1870375 C27.0743416,41.2239851 25.515625,37.2954866 25.515625,33.1267647 L25.515625,30.7580882 C25.515625,29.9753465 26.162168,29.3470588 26.953125,29.3470588 L28.828125,29.3470588 C29.619082,29.3470588 30.265625,29.9753465 30.265625,30.7580882 L30.265625,33.1267647 C30.265625,35.0426029 30.7462905,36.9413496 31.6407144,38.6128991 Z M30.734375,0.5 L30.734375,14.0764706 L44.5,14.0764706 L44.5,13.8818107 C44.5,13.2954661 44.2632981,12.7297395 43.841238,12.3130862 L43.8410564,12.3129069 L32.547842,1.15297592 C32.123655,0.734222992 31.5467327,0.5 30.9380493,0.5 L30.734375,0.5 Z" stroke-linejoin="square"></path>
                </g>
                <g id="Shape">
                    <use fill="#AEBCC6" fill-rule="evenodd" xlink:href="#path-3"></use>
                    <use fill="black" fill-opacity="1" filter="url(#filter-4)" xlink:href="#path-3"></use>
                    <path stroke="#9598B0" stroke-width="1" d="M64.75,29.5 L41.8125,29.5 C40.5281851,29.5 39.5,30.5110487 39.5,31.765625 L39.5,85.234375 C39.5,86.4889513 40.5281851,87.5 41.8125,87.5 L81.1875,87.5 C82.4718149,87.5 83.5,86.4889513 83.5,85.234375 L83.5,47.9375 L68.0625,47.9375 C66.2413462,47.9375 64.75,46.4710096 64.75,44.671875 L64.75,29.5 Z M69.5,29.5 L69.5,43.25 L83.5,43.25 L83.5,43.0470703 C83.5,42.4525674 83.2590148,41.8788536 82.8289356,41.4559422 L71.3564613,30.1631525 C70.9240379,29.7379362 70.3356712,29.5 69.7148438,29.5 L69.5,29.5 Z" stroke-linejoin="square"></path>
                </g>
            </g>
            <path d="M80.3442897,31.9315644 C80.1038949,31.9114464 79.8706189,31.7811436 79.716555,31.5581363 L74.8263704,24.7750966 C74.518318,24.3291242 74.5847904,23.681501 74.9740338,23.3283316 C75.3473722,22.9890676 75.8922606,23.0423182 76.2001533,23.465412 L79.6237503,28.2194824 C80.5883654,19.8450552 74.7901105,8.62908036 68.0565566,4.86786783 C61.0011829,0.926893941 48.5565566,0.367867827 42.6247692,4.76271756 C42.1517085,5.11320731 41.7361571,5.2364614 41.3647589,4.86915959 C40.9933239,4.50194422 40.8157597,3.78486684 41.2722625,3.42519737 C47.0565566,-1.13213217 61.5565566,-1.13213217 69.0565566,3.36786783 C76.5565566,7.86786783 82.4645393,19.2268468 81.4153904,28.4784722 L85.521729,24.2099987 C85.8625048,23.80686 86.4348337,23.7956217 86.7865034,24.1860343 C87.1381731,24.5764468 87.1478053,25.2323427 86.8070294,25.6354813 C86.7832529,25.6678862 86.7515185,25.6957389 86.7197473,25.7236782 L81.0145606,31.6668954 C80.8359851,31.8524966 80.5927178,31.9562765 80.3442897,31.9315644 Z" id="Path-Copy" fill="#3B1763" fill-rule="nonzero"></path>
        </g>
    </g>
</svg>