<?xml version="1.0" encoding="UTF-8"?>
<svg width="27px" height="20px" viewBox="0 0 27 20" version="1.1" xmlns="http://www.w3.org/2000/svg" xmlns:xlink="http://www.w3.org/1999/xlink">
    <!-- Generator: Sketch 60.1 (88133) - https://sketch.com -->
    <title>csv-tools-icon</title>
    <desc>Created with Sketch.</desc>
    <g id="csv-tools-icon" stroke="none" stroke-width="1" fill="none" fill-rule="evenodd">
        <path d="M8.25,0.5 L0.9375,0.5 C0.694111125,0.5 0.5,0.694111125 0.5,0.9375 L0.5,19.0625 C0.5,19.3058889 0.694111125,19.5 0.9375,19.5 L14.0625,19.5 C14.3058889,19.5 14.5,19.3058889 14.5,19.0625 L14.5,6.75 L9.6875,6.75 C8.89573263,6.75 8.25,6.10426737 8.25,5.3125 L8.25,0.5 Z M10.578125,0.592501116 L10.578125,4.44117647 L14.4077575,4.44117647 C14.3980643,4.42898077 14.3876658,4.41728854 14.3765904,4.40616965 L14.3764103,4.40598878 L10.612125,0.623081418 C10.6013068,0.612220724 10.5899551,0.602019253 10.578125,0.592501116 Z" id="Shape-Copy-4" stroke="#ECF0F1" fill="#176332"></path>
        <path d="M4.65625,10.8529412 L4.65625,10.6176471 L4.51171875,10.6176471 C3.71530001,10.6176471 3.078125,11.2282447 3.078125,11.9705882 L3.078125,13.2058824 C3.078125,13.9482259 3.71530001,14.5588235 4.51171875,14.5588235 L4.65625,14.5588235 L4.65625,14.3235294 L4.51171875,14.3235294 C3.88412626,14.3235294 3.3671875,13.8281528 3.3671875,13.2058824 L3.3671875,11.9705882 C3.3671875,11.3483178 3.88412626,10.8529412 4.51171875,10.8529412 L4.65625,10.8529412 Z" id="Path-Copy" stroke="#ECF0F1"></path>
        <path d="M6.39521421,14.5588235 L6.71762292,14.5588235 C7.40485526,14.5588235 7.93776097,14.0967592 7.93750016,13.5678615 C7.93750016,13.3103092 7.81066097,13.0555254 7.58057577,12.8689007 L6.6915907,12.1435729 C6.52946336,12.0106995 6.42251507,11.8263187 6.42251507,11.6086091 C6.42251507,11.1460301 6.87496071,10.8530377 7.34487692,10.8530377 L7.66728563,10.8530377 L7.66728563,10.6176471 L7.34568838,10.6176471 C6.6581792,10.6176471 6.125,11.0796402 6.125,11.6086091 C6.125,11.8661616 6.25183904,12.1209454 6.48192407,12.3075699 L7.37090914,13.0328977 C7.53303648,13.1657711 7.63998477,13.3501518 7.63998477,13.5678615 C7.63998477,14.0304405 7.18753913,14.3234329 6.71762292,14.3234329 L6.39521421,14.3234329 L6.39521421,14.5588235 Z" id="Path-Copy-2" stroke="#ECF0F1"></path>
        <path d="M9.421875,10.6176471 L9.171875,10.6176471 L9.171875,11.2294118 C9.171875,12.4728196 9.62720127,13.6398479 10.4533231,14.5190508 C10.4768424,14.5440636 10.5110637,14.5588235 10.546875,14.5588235 C10.5826863,14.5588235 10.6169076,14.5440636 10.6403056,14.5191799 C11.4665487,13.6398479 11.921875,12.4728196 11.921875,11.2294118 L11.921875,10.6176471 L11.671875,10.6176471 L11.671875,11.2294118 C11.671875,12.1003841 11.4256424,12.9614786 10.9710439,13.6898747 L10.546748,14.3697174 L10.1226349,13.6897606 C9.66802036,12.9609026 9.421875,12.1002253 9.421875,11.2294118 L9.421875,10.6176471 Z" id="Path-Copy-3" stroke="#ECF0F1"></path>
        <path d="M20,12.6317501 L14.1769671,18.4549077 C13.4501784,19.1816829 12.2718874,19.181712 11.5450697,18.4549077 C10.8183101,17.7281035 10.8183101,16.5497583 11.5450697,15.822954 L17.3679282,10 C17.8378371,11.1979737 18.8015867,12.1615985 20,12.6317501 Z" id="Path" stroke="#ECF0F1" fill="#176332" fill-rule="nonzero"></path>
        <path d="M25.6421142,9.55555556 C25.91849,9.55555556 26.0914478,9.83763889 25.9489508,10.059 C25.2004774,11.222 23.8371422,12 22.2793631,12 C19.925057,12 18.0148245,10.2229444 18.0000844,8.02558333 C17.9852849,5.81858333 19.9182219,4 22.2794226,4 C23.8355077,4 25.1975948,4.77636111 25.9466031,5.93730556 C26.0903779,6.16016667 25.9204811,6.44444444 25.6420547,6.44444444 L22.5171058,6.44444444 L21.3283925,8 L22.5171058,9.55555556 L25.6421142,9.55555556 Z" id="Path" stroke="#ECF0F1" fill="#176332" fill-rule="nonzero"></path>
        <path d="M14,17 C14,16.4477083 13.5522917,16 13,16 C12.4477083,16 12,16.4477083 12,17 C12,17.5522917 12.4477083,18 13,18 C13.5522917,18 14,17.5522917 14,17 Z" id="Path" fill="#ECF0F1" fill-rule="nonzero"></path>
    </g>
</svg>