<?xml version="1.0" encoding="UTF-8"?>
<svg width="95px" height="95px" viewBox="0 0 95 95" version="1.1" xmlns="http://www.w3.org/2000/svg" xmlns:xlink="http://www.w3.org/1999/xlink">
    <!-- Generator: Sketch 59.1 (86144) - https://sketch.com -->
    <title>Icon/CSVTools</title>
    <desc>Created with Sketch.</desc>
    <defs>
        <path d="M34.7033898,20.71875 L34.7033898,0 L3.71822034,0 C1.65770657,0 -6.14619466e-13,1.63007813 -6.14619466e-13,3.65625 L-6.14619466e-13,74.34375 C-6.14619466e-13,76.3699219 1.65770657,78 3.71822034,78 L55.7733051,78 C57.8338189,78 59.4915254,76.3699219 59.4915254,74.34375 L59.4915254,24.375 L38.4216102,24.375 C36.376589,24.375 34.7033898,22.7296875 34.7033898,20.71875 Z M20.4502119,43.0720588 C20.4502119,43.7374963 19.878245,44.2764706 19.1720736,44.2764706 L17.8939354,44.2764706 C16.4815926,44.2764706 15.3376589,45.3544191 15.3376589,46.6852941 L15.3376589,51.5029412 C15.3376589,52.8338162 16.4815926,53.9117647 17.8939354,53.9117647 L19.1720736,53.9117647 C19.878245,53.9117647 20.4502119,54.450739 20.4502119,55.1161765 L20.4502119,57.525 C20.4502119,58.1904375 19.878245,58.7294118 19.1720736,58.7294118 L17.8939354,58.7294118 C13.6585048,58.7294118 10.2251059,55.4940607 10.2251059,51.5029412 L10.2251059,46.6852941 C10.2251059,42.6941746 13.6585048,39.4588235 17.8939354,39.4588235 L19.1720736,39.4588235 C19.878245,39.4588235 20.4502119,39.9977978 20.4502119,40.6632353 L20.4502119,43.0720588 Z M24.6683428,58.7294118 C23.9570964,58.7294118 23.3810191,58.1903954 23.3810191,57.5249059 L23.3810191,55.1158942 C23.3810191,54.4504047 23.9570964,53.9113883 24.6683428,53.9113883 L26.6427756,53.9113883 C27.6002227,53.9113883 28.3179057,53.384417 28.3179057,52.9146597 C28.3179057,52.7189275 28.1972191,52.5141615 27.9767649,52.3364969 L24.4543252,49.510425 C23.0913712,48.4233584 22.309322,46.8785797 22.309322,45.2735756 C22.309322,42.0665787 25.3699343,39.4588235 29.1337471,39.4588235 L31.1049616,39.4588235 C31.816208,39.4588235 32.3922854,39.9978399 32.3922854,40.6633294 L32.3922854,43.0723411 C32.3922854,43.7378306 31.816208,44.276847 31.1049616,44.276847 L29.1305288,44.276847 C28.1730818,44.276847 27.4553988,44.8038183 27.4553988,45.2735756 C27.4553988,45.4693078 27.5760854,45.6740738 27.7965396,45.8517384 L31.3189792,48.6778103 C32.6819332,49.7648769 33.4639837,51.3096556 33.4639837,52.9146597 C33.4655916,56.1201509 30.4065885,58.7294118 26.6427756,58.7294118 L24.6683428,58.7294118 Z M39.3511653,43.7947059 C39.3511653,46.8463842 40.2342426,49.8423585 41.8299788,52.3580735 C43.425715,49.843864 44.3087924,46.8463842 44.3087924,43.7947059 L44.3087924,40.6632353 C44.3087924,39.9977978 44.8634269,39.4588235 45.5481992,39.4588235 L48.0270127,39.4588235 C48.711785,39.4588235 49.2664195,39.9977978 49.2664195,40.6632353 L49.2664195,43.7947059 C49.2664195,49.1362721 47.2709746,54.1661967 43.6457097,57.9600938 C43.1778337,58.449386 42.5193988,58.7294118 41.8299788,58.7294118 C41.1405588,58.7294118 40.4821239,58.449386 40.0142479,57.9600938 C36.3889831,54.1661967 34.3935381,49.1362721 34.3935381,43.7947059 L34.3935381,40.6632353 C34.3935381,39.9977978 34.9481727,39.4588235 35.6329449,39.4588235 L38.1117585,39.4588235 C38.7965307,39.4588235 39.3511653,39.9977978 39.3511653,40.6632353 L39.3511653,43.7947059 Z M58.4239895,15.8079044 L43.4937372,1.05386029 C42.8074641,0.376378676 41.8771828,0 40.9011499,0 L39.9708686,0 L39.9708686,19.2705882 L59.4915254,19.2705882 L59.4915254,18.3522243 C59.4915254,17.40375 59.1102626,16.485386 58.4239895,15.8079044 Z" id="path-1"></path>
        <filter x="-3.4%" y="-2.6%" width="106.7%" height="105.1%" filterUnits="objectBoundingBox" id="filter-2">
            <feGaussianBlur stdDeviation="1.5" in="SourceAlpha" result="shadowBlurInner1"></feGaussianBlur>
            <feOffset dx="0" dy="1" in="shadowBlurInner1" result="shadowOffsetInner1"></feOffset>
            <feComposite in="shadowOffsetInner1" in2="SourceAlpha" operator="arithmetic" k2="-1" k3="1" result="shadowInnerInner1"></feComposite>
            <feColorMatrix values="0 0 0 0 0   0 0 0 0 0   0 0 0 0 0  0 0 0 0.5 0" type="matrix" in="shadowInnerInner1"></feColorMatrix>
        </filter>
        <path d="M86.7026638,55.8333333 C87.7045262,55.8333333 88.3314982,56.8911458 87.8149466,57.72125 C85.1017308,62.0825 80.1596404,65 74.5126913,65 C65.9783317,65 59.0537387,58.3360417 59.000306,50.0959375 C58.9466579,41.8196875 65.9535544,35 74.5129068,35 C80.1537154,35 85.0912812,37.9113542 87.8064361,42.2648958 C88.32762,43.100625 87.711744,44.1666667 86.7024484,44.1666667 L75.3745085,44.1666667 L71.0654228,50 L75.3745085,55.8333333 L86.7026638,55.8333333 Z M69,66.0649172 L46.3548719,86.12246 C43.5284715,88.6257966 38.946229,88.6258968 36.1197155,86.12246 C33.2934282,83.6190232 33.2934282,79.5602784 36.1197155,77.0568417 L58.7641651,57 C60.5915889,61.1263537 64.3395039,64.4455059 69,66.0649172 Z M45,81 C45,79.343125 43.656875,78 42,78 C40.343125,78 39,79.343125 39,81 C39,82.656875 40.343125,84 42,84 C43.656875,84 45,82.656875 45,81 Z" id="path-3"></path>
        <filter x="-9.3%" y="-9.4%" width="118.5%" height="118.9%" filterUnits="objectBoundingBox" id="filter-5">
            <feGaussianBlur stdDeviation="4" in="SourceAlpha" result="shadowBlurInner1"></feGaussianBlur>
            <feOffset dx="0" dy="2" in="shadowBlurInner1" result="shadowOffsetInner1"></feOffset>
            <feComposite in="shadowOffsetInner1" in2="SourceAlpha" operator="arithmetic" k2="-1" k3="1" result="shadowInnerInner1"></feComposite>
            <feColorMatrix values="0 0 0 0 0.813713859   0 0 0 0 0.843366214   0 0 0 0 0.873018569  0 0 0 0.3 0" type="matrix" in="shadowInnerInner1"></feColorMatrix>
        </filter>
    </defs>
    <g id="Icon/CSVTools" stroke="none" stroke-width="1" fill="none" fill-rule="evenodd">
        <g id="Group" transform="translate(4.000000, 4.000000)">
            <g id="Shape-Copy">
                <use fill="#176332" fill-rule="evenodd" xlink:href="#path-1"></use>
                <use fill="black" fill-opacity="1" filter="url(#filter-2)" xlink:href="#path-1"></use>
                <path stroke="#094B21" stroke-width="1" d="M34.2033898,0.5 L3.71822034,0.5 C1.93198541,0.5 0.5,1.90811899 0.5,3.65625 L0.5,74.34375 C0.5,76.091881 1.93198541,77.5 3.71822034,77.5 L55.7733051,77.5 C57.55954,77.5 58.9915254,76.091881 58.9915254,74.34375 L58.9915254,24.875 L38.4216102,24.875 C36.1023101,24.875 34.2033898,23.0077284 34.2033898,20.71875 L34.2033898,0.5 Z M20.9502119,43.0720588 C20.9502119,44.0204987 20.1479642,44.7764706 19.1720736,44.7764706 L17.8939354,44.7764706 C16.7513118,44.7764706 15.8376589,45.6374215 15.8376589,46.6852941 L15.8376589,51.5029412 C15.8376589,52.5508138 16.7513118,53.4117647 17.8939354,53.4117647 L19.1720736,53.4117647 C20.1479642,53.4117647 20.9502119,54.1677366 20.9502119,55.1161765 L20.9502119,57.525 C20.9502119,58.4734399 20.1479642,59.2294118 19.1720736,59.2294118 L17.8939354,59.2294118 C13.3887856,59.2294118 9.72510593,55.7770631 9.72510593,51.5029412 L9.72510593,46.6852941 C9.72510593,42.4111722 13.3887856,38.9588235 17.8939354,38.9588235 L19.1720736,38.9588235 C20.1479642,38.9588235 20.9502119,39.7147954 20.9502119,40.6632353 L20.9502119,43.0720588 Z M24.6683428,59.2294118 C23.6881115,59.2294118 22.8810191,58.4742424 22.8810191,57.5249059 L22.8810191,55.1158942 C22.8810191,54.1665577 23.6881115,53.4113883 24.6683428,53.4113883 L26.6427756,53.4113883 C27.3035128,53.4113883 27.8179057,53.0838322 27.8179057,52.9146597 C27.8179057,52.8885576 27.775263,52.8162662 27.6638695,52.7264923 L24.1425546,49.9013202 C22.6634061,48.7215791 21.809322,47.034559 21.809322,45.2735756 C21.809322,41.7711083 25.1099473,38.9588235 29.1337471,38.9588235 L31.1049616,38.9588235 C32.085193,38.9588235 32.8922854,39.7139929 32.8922854,40.6633294 L32.8922854,43.0723411 C32.8922854,44.0216776 32.085193,44.776847 31.1049616,44.776847 L29.1305288,44.776847 C28.4697917,44.776847 27.9553988,45.1044031 27.9553988,45.2735756 C27.9553988,45.2996776 27.9980414,45.3719691 28.109435,45.461743 L31.6307499,48.2869151 C33.1098988,49.4666566 33.9639837,51.1536768 33.9639836,52.9144089 C33.96574,56.4160195 30.666017,59.2294118 26.6427756,59.2294118 L24.6683428,59.2294118 Z M41.8300773,51.3827397 C43.1156705,49.0890548 43.8087924,46.45399 43.8087924,43.7947059 L43.8087924,40.6632353 C43.8087924,39.7183998 44.5904386,38.9588235 45.5481992,38.9588235 L48.0270127,38.9588235 C48.9847732,38.9588235 49.7664195,39.7183998 49.7664195,40.6632353 L49.7664195,43.7947059 C49.7664195,49.2646664 47.7215734,54.4183774 44.0070833,58.3056501 C43.4439121,58.8945995 42.6544843,59.2294118 41.8299788,59.2294118 C41.0054734,59.2294118 40.2160456,58.8945995 39.6527518,58.3055219 C35.9383843,54.4183774 33.8935381,49.2646664 33.8935381,43.7947059 L33.8935381,40.6632353 C33.8935381,39.7183998 34.6751844,38.9588235 35.6329449,38.9588235 L38.1117585,38.9588235 C39.069519,38.9588235 39.8511653,39.7183998 39.8511653,40.6632353 L39.8511653,43.7947059 C39.8511653,46.4536484 40.5441209,49.0876668 41.8300773,51.3827397 Z M40.4708686,0.5 L40.4708686,18.7705882 L58.9915254,18.7705882 L58.9915254,18.3522243 C58.9915254,17.5339725 58.6613327,16.7447993 58.0727226,16.1637296 L58.072541,16.1635503 L43.1424703,1.40968548 C42.5513874,0.82617463 41.7479759,0.5 40.9011499,0.5 L40.4708686,0.5 Z" stroke-linejoin="square"></path>
            </g>
            <mask id="mask-4" fill="white">
                <use xlink:href="#path-3"></use>
            </mask>
            <g id="Mask">
                <use fill="#AEBCC6" fill-rule="evenodd" xlink:href="#path-3"></use>
                <use fill="black" fill-opacity="1" filter="url(#filter-5)" xlink:href="#path-3"></use>
                <path stroke-opacity="0.239701705" stroke="#3B1763" stroke-width="1" d="M86.7026638,56.3333333 L75.1222321,56.3333333 L70.4437962,50 L75.1222321,43.6666667 L86.7024484,43.6666667 C87.3234743,43.6666667 87.6933364,43.0284294 87.3821827,42.5294881 C84.6838072,38.2028508 79.8415587,35.5 74.5129068,35.5 C66.2276095,35.5 59.4484683,42.0973549 59.5002955,50.0926953 C59.5519461,58.057973 66.253517,64.5 74.5126913,64.5 C79.8472788,64.5 84.6940422,61.7912807 87.390428,57.4570834 C87.6951122,56.9674526 87.3207074,56.3333333 86.7026638,56.3333333 Z M68.044734,66.2430978 C63.8518774,64.5806985 60.4535292,61.5542724 58.5957372,57.8171103 L36.4512445,77.4311256 C33.8495852,79.735594 33.8495852,83.4437076 36.4512296,85.7481628 C39.0884694,88.0839603 43.3861508,88.0839312 46.0233503,85.7481694 L68.044734,66.2430978 Z M45.5,81 C45.5,82.9330174 43.9330174,84.5 42,84.5 C40.0669826,84.5 38.5,82.9330174 38.5,81 C38.5,79.0669826 40.0669826,77.5 42,77.5 C43.9330174,77.5 45.5,79.0669826 45.5,81 Z" stroke-linejoin="square"></path>
            </g>
        </g>
    </g>
</svg>