<?xml version="1.0" encoding="UTF-8"?>
<svg width="44px" height="20px" viewBox="0 0 44 20" version="1.1" xmlns="http://www.w3.org/2000/svg" xmlns:xlink="http://www.w3.org/1999/xlink">
    <!-- Generator: Sketch 60.1 (88133) - https://sketch.com -->
    <title>csv-to-file-icon</title>
    <desc>Created with Sketch.</desc>
    <g id="csv-to-file-icon" stroke="none" stroke-width="1" fill="none" fill-rule="evenodd">
        <g id="Group-5-Copy" transform="translate(17.000000, 6.000000)"></g>
        <path d="M37.25,0.5 L29.9375,0.5 C29.6941111,0.5 29.5,0.694111125 29.5,0.9375 L29.5,19.0625 C29.5,19.3058889 29.6941111,19.5 29.9375,19.5 L43.0625,19.5 C43.3058889,19.5 43.5,19.3058889 43.5,19.0625 L43.5,6.75 L38.6875,6.75 C37.8957326,6.75 37.25,6.10426737 37.25,5.3125 L37.25,0.5 Z M43.4120607,4.5 C43.4001,4.48417813 43.3870049,4.46911162 43.3728287,4.45493537 L39.5487904,0.626990891 C39.5335153,0.611715854 39.5172033,0.597701897 39.5,0.585013603 L39.5,4.5 L43.4120607,4.5 Z" id="Shape-Copy" stroke="#ECF0F1" fill="#176332"></path>
        <path d="M8.25,0.5 L0.9375,0.5 C0.694111125,0.5 0.5,0.694111125 0.5,0.9375 L0.5,19.0625 C0.5,19.3058889 0.694111125,19.5 0.9375,19.5 L14.0625,19.5 C14.3058889,19.5 14.5,19.3058889 14.5,19.0625 L14.5,6.75 L9.6875,6.75 C8.89573263,6.75 8.25,6.10426737 8.25,5.3125 L8.25,0.5 Z M10.578125,0.592501116 L10.578125,4.44117647 L14.4077575,4.44117647 C14.3980643,4.42898077 14.3876658,4.41728854 14.3765904,4.40616965 L14.3764103,4.40598878 L10.612125,0.623081418 C10.6013068,0.612220724 10.5899551,0.602019253 10.578125,0.592501116 Z" id="Shape-Copy" stroke="#ECF0F1" fill="#176332"></path>
        <path d="M4.65625,10.8529412 L4.65625,10.6176471 L4.51171875,10.6176471 C3.71530001,10.6176471 3.078125,11.2282447 3.078125,11.9705882 L3.078125,13.2058824 C3.078125,13.9482259 3.71530001,14.5588235 4.51171875,14.5588235 L4.65625,14.5588235 L4.65625,14.3235294 L4.51171875,14.3235294 C3.88412626,14.3235294 3.3671875,13.8281528 3.3671875,13.2058824 L3.3671875,11.9705882 C3.3671875,11.3483178 3.88412626,10.8529412 4.51171875,10.8529412 L4.65625,10.8529412 Z" id="Path" stroke="#ECF0F1" fill="#283E4A"></path>
        <path d="M6.39521421,14.5588235 L6.71762292,14.5588235 C7.40485526,14.5588235 7.93776097,14.0967592 7.93750016,13.5678615 C7.93750016,13.3103092 7.81066097,13.0555254 7.58057577,12.8689007 L6.6915907,12.1435729 C6.52946336,12.0106995 6.42251507,11.8263187 6.42251507,11.6086091 C6.42251507,11.1460301 6.87496071,10.8530377 7.34487692,10.8530377 L7.66728563,10.8530377 L7.66728563,10.6176471 L7.34568838,10.6176471 C6.6581792,10.6176471 6.125,11.0796402 6.125,11.6086091 C6.125,11.8661616 6.25183904,12.1209454 6.48192407,12.3075699 L7.37090914,13.0328977 C7.53303648,13.1657711 7.63998477,13.3501518 7.63998477,13.5678615 C7.63998477,14.0304405 7.18753913,14.3234329 6.71762292,14.3234329 L6.39521421,14.3234329 L6.39521421,14.5588235 Z" id="Path" stroke="#ECF0F1" fill="#283E4A"></path>
        <path d="M9.421875,10.6176471 L9.171875,10.6176471 L9.171875,11.2294118 C9.171875,12.4728196 9.62720127,13.6398479 10.4533231,14.5190508 C10.4768424,14.5440636 10.5110637,14.5588235 10.546875,14.5588235 C10.5826863,14.5588235 10.6169076,14.5440636 10.6403056,14.5191799 C11.4665487,13.6398479 11.921875,12.4728196 11.921875,11.2294118 L11.921875,10.6176471 L11.671875,10.6176471 L11.671875,11.2294118 C11.671875,12.1003841 11.4256424,12.9614786 10.9710439,13.6898747 L10.546748,14.3697174 L10.1226349,13.6897606 C9.66802036,12.9609026 9.421875,12.1002253 9.421875,11.2294118 L9.421875,10.6176471 Z" id="Path" stroke="#ECF0F1" fill="#283E4A"></path>
        <path d="M17,11.309671 L17,9.688529 C17,9.42104058 17.215118,9.20218641 17.47804,9.20218641 L22.0990937,9.20218641 L22.0990937,6.48677359 C22.0990937,6.05311811 22.6129868,5.8383168 22.9157454,6.14228092 L26.8595757,10.1546073 C27.0468081,10.3450915 27.0468081,10.6531085 26.8595757,10.8435927 L22.9157454,14.8559191 C22.6129868,15.1639361 22.0990937,14.9450819 22.0990937,14.5114264 L22.0990937,11.7960136 L17.47804,11.7960136 C17.215118,11.7960136 17,11.5771594 17,11.309671 Z" id="Path" stroke="#ECF0F1" fill="#176332" fill-rule="nonzero"></path>
    </g>
</svg>