<?xml version="1.0" encoding="UTF-8"?>
<svg width="80px" height="80px" viewBox="0 0 80 80" version="1.1" xmlns="http://www.w3.org/2000/svg" xmlns:xlink="http://www.w3.org/1999/xlink">
    <!-- Generator: Sketch 59.1 (86144) - https://sketch.com -->
    <title>icon/csv/engine</title>
    <desc>Created with Sketch.</desc>
    <g id="icon/csv/engine" stroke="none" stroke-width="1" fill="none" fill-rule="evenodd">
        <g id="convert-csv-icons-05" transform="translate(2.000000, 2.000000)" fill="#176332" fill-rule="nonzero">
            <path d="M40.4509346,75 L35.6004673,75 C34.3081238,74.9969792 33.1604619,74.1654259 32.7441589,72.9304245 L31.4544393,69.1450472 L27.9497664,70.875 C26.7878188,71.4528907 25.3895574,71.2117021 24.4836449,70.2771226 L21.0525701,66.7393868 C20.156703,65.813039 19.9247949,64.4225654 20.4707944,63.2511792 L22.1845794,59.6002358 L18.4801402,58.2700472 C17.2697664,57.828559 16.463714,56.6682138 16.4649518,55.3691038 L16.4649518,50.3985849 C16.463714,49.0994749 17.2697664,47.9391297 18.4801402,47.4976415 L22.1845794,46.1674528 L20.4707944,42.5200472 C19.9254025,41.3480018 20.155676,39.9575524 21.0490654,39.0283019 L24.4836449,35.490566 C25.3916342,34.551242 26.7965261,34.3110722 27.9602804,34.8962264 L31.4649518,36.6226415 L32.7511682,32.8372642 C33.1702229,31.6089043 34.3134616,30.7827764 35.6004673,30.7783019 L40.4509346,30.7783019 C41.7445475,30.7807566 42.8930483,31.6143403 43.307243,32.8514151 L44.5934579,36.6332547 L48.0981308,34.9033019 C49.2595759,34.3219356 50.6599571,34.5634898 51.5642523,35.5011792 L54.9953271,39.0389151 C55.8911942,39.9652629 56.1231023,41.3557364 55.5771028,42.5271226 L53.8633178,46.178066 L57.567757,47.5082547 C58.7781308,47.9497429 59.5841832,49.1100881 59.5829454,50.4091981 L59.5829454,55.3903302 C59.5841832,56.6894402 58.7781308,57.8497854 57.567757,58.2912736 L53.8633178,59.6214623 L55.5771028,63.2724057 C56.1231023,64.4437919 55.8911942,65.8342654 54.9953271,66.7606132 L51.5642523,70.2983491 C50.6566135,71.2351603 49.2550466,71.4764311 48.0911215,70.8962264 L44.5864486,69.1662736 L43.3002336,72.9516509 C42.877606,74.1758223 41.7351936,74.9970977 40.4509346,75 L40.4509346,75 Z M35.7021028,71.8160377 L40.3492991,71.8160377 L42.1016355,66.6650943 L42.8025701,66.4033019 C43.1530374,66.2653302 43.5350467,66.1061321 43.9065421,65.9257075 L44.6074766,65.5966981 L49.4018692,67.9705189 L52.713785,64.567217 L50.3936916,59.6320755 L50.7021028,58.9563679 C50.8773364,58.5707547 51.0350467,58.1886792 51.1682243,57.817217 L51.4205607,57.1096698 L56.4252336,55.3125 L56.4252336,50.4658019 L51.4030374,48.6650943 L51.1471963,47.9575472 C51.010514,47.571934 50.8528037,47.1898585 50.6845794,46.821934 L50.3761682,46.1462264 L52.6962617,41.1933962 L49.3843458,37.7936321 L44.5864486,40.1674528 L43.885514,39.8349057 C43.5140187,39.6544811 43.146028,39.4811321 42.7885514,39.3643868 L42.0876168,39.0990566 L40.3352804,33.9445755 L35.7021028,33.9445755 L33.9497664,39.0990566 L33.2488318,39.3643868 C32.8983645,39.4988208 32.5198598,39.6580189 32.1553738,39.8349057 L31.4544393,40.1674528 L26.6565421,37.7936321 L23.3446262,41.1933962 L25.6647196,46.1462264 L25.3563084,46.821934 C25.1810748,47.2040094 25.0268692,47.5825472 24.8936916,47.9540094 L24.6413551,48.6615566 L19.6261682,50.4658019 L19.6261682,55.3125 L24.6483645,57.1132075 L24.9007009,57.8207547 C25.0373832,58.2028302 25.1950935,58.5849057 25.3633178,58.9563679 L25.6752336,59.6320755 L23.3551402,64.5849057 L26.6670561,67.9882075 L31.4614486,65.6143868 L32.1623832,65.9433962 C32.5128505,66.120283 32.9018692,66.2971698 33.2663551,66.4209906 L33.9672897,66.682783 L35.7021028,71.8160377 Z" id="Shape"></path>
            <polygon id="Path" points="56.7056075 56.9575472 56.6915888 53.7735849 56.7056075 53.7735849"></polygon>
            <path d="M38.1098131,63.696934 C33.7952106,63.7399583 29.8817574,61.1493129 28.2013403,57.1376783 C26.5209233,53.1260438 27.4060591,48.4872326 30.442416,45.3926715 C33.4787728,42.2981104 38.0655238,41.3601436 42.0556114,43.0178332 C46.0456991,44.6755228 48.6495747,48.6008493 48.6484368,52.9563679 C48.6697246,58.85712 43.9553537,63.6618612 38.1098131,63.696934 L38.1098131,63.696934 Z M38.1098131,45.3962264 C35.0713946,45.3531653 32.3083535,47.1675818 31.1159231,49.9889301 C29.9234927,52.8102784 30.5380484,56.0792828 32.6715044,58.263529 C34.8049604,60.4477753 38.0344019,61.1142803 40.8459604,59.950606 C43.6575189,58.7869316 45.4938594,56.023753 45.4943028,52.9563679 C45.5194197,48.8118717 42.2155225,45.4293202 38.1098131,45.3962264 L38.1098131,45.3962264 Z" id="Shape"></path>
            <path d="M59.0817757,36.4386792 L55.1705607,36.4386792 C53.9249007,36.4359366 52.8171431,35.6384328 52.4088785,34.4504717 L51.5502336,31.9351415 L49.2091121,33.0849057 C48.0866922,33.63921 46.7388808,33.4069944 45.8621495,32.5082547 L43.0969626,29.678066 C42.2277723,28.7857725 42.0037442,27.4402307 42.536215,26.3101415 L43.6787383,23.8867925 L41.2044393,23.0058962 C40.0347237,22.5833966 39.2536567,21.4651488 39.2523348,20.2110849 L39.2523348,16.2240566 C39.2510414,14.9702396 40.0312765,13.8511737 41.2009346,13.4292453 L43.6787383,12.5448113 L42.536215,10.125 C42.005359,8.99289444 42.2337455,7.64642097 43.1074766,6.75707547 L45.8761682,3.92688679 C46.7532013,3.02832795 48.1016051,2.79743561 49.2231308,3.35377358 L51.5607477,4.5 L52.4193925,1.98820755 C52.8254931,0.803243951 53.9284271,0.00617833477 55.1705607,0 L59.0817757,0 C60.328089,0.00155374214 61.4359868,0.801592989 61.8399533,1.99174528 L62.7021028,4.50353774 L65.0432243,3.35377358 C66.1660495,2.79807324 67.5153483,3.03197125 68.3901869,3.93396226 L71.1553738,6.76415094 C72.0249265,7.65481602 72.2490776,8.99968298 71.7161215,10.1285377 L70.5735981,12.5518868 L73.0478972,13.4433962 C74.2127931,13.8641318 74.9927864,14.9751882 75,16.2240566 L75,20.2181604 C74.9933788,21.4663986 74.2128994,22.5767329 73.0478972,22.995283 L70.5735981,23.879717 L71.7161215,26.303066 C72.2485922,27.4331552 72.0245642,28.7786971 71.1553738,29.6709906 L68.3866822,32.5011792 C67.5095805,33.4023924 66.1584817,33.6335042 65.036215,33.0742925 L62.7021028,31.928066 L61.8399533,34.4433962 C61.4371862,35.6349454 60.3290096,36.4366073 59.0817757,36.4386792 Z M55.338785,33.254717 L58.9135514,33.254717 L60.3154206,29.1580189 L61.0163551,28.8962264 C61.2581776,28.8042453 61.5070093,28.6981132 61.7593458,28.5778302 L62.4392523,28.259434 L66.2943925,30.1450472 L68.8352804,27.5518868 L66.9392523,23.6285377 L67.2441589,22.9528302 C67.3633178,22.6945755 67.4684579,22.4398585 67.5560748,22.192217 L67.8154206,21.4846698 L71.8457944,20.0625 L71.8457944,16.3761792 L67.8259346,14.9610849 L67.5700935,14.2535377 C67.4754673,13.995283 67.3703271,13.740566 67.2581776,13.4964623 L66.9392523,12.8136792 L68.7932243,8.88679245 L66.2523364,6.29363208 L62.3971963,8.17924528 L61.7172897,7.86084906 C61.4614486,7.74410377 61.2126168,7.63443396 60.9707944,7.54245283 L60.2698598,7.27712264 L58.9135514,3.18396226 L55.338785,3.18396226 L53.9369159,7.27712264 L53.2359813,7.54245283 C52.9941589,7.63443396 52.7453271,7.74410377 52.489486,7.86084906 L51.8095794,8.17924528 L47.9544393,6.29363208 L45.4135514,8.88679245 L47.3130841,12.8101415 L47.0081776,13.4858491 C46.8925234,13.740566 46.7873832,13.995283 46.6962617,14.2464623 L46.4404206,14.9540094 L42.4205607,16.3691038 L42.4205607,20.0625 L46.4369159,21.495283 L46.6962617,22.2028302 C46.7838785,22.4504717 46.8890187,22.7051887 47.0081776,22.9634434 L47.3130841,23.6391509 L45.4591121,27.5625 L48,30.1556604 L51.8341121,28.2700472 L52.5175234,28.5884434 C52.7698598,28.7087264 53.0221963,28.8148585 53.260514,28.9068396 L53.9614486,29.1686321 L55.338785,33.254717 Z" id="Shape"></path>
            <polygon id="Path" points="73.6436916 21.2264151 73.6296729 18.0424528 73.6436916 18.0424528"></polygon>
            <path d="M57.1752336,26.9964623 C53.6381844,27.0308775 50.4304125,24.9066006 49.0531531,21.6177916 C47.6758936,18.3289826 48.4016027,14.5262496 50.8906489,11.989269 C53.3796951,9.45228837 57.1396834,8.68293788 60.4109418,10.041273 C63.6822002,11.3996081 65.8175927,14.6169165 65.817816,18.1875 C65.8352352,23.0267366 61.9691882,26.9672365 57.1752336,26.9964623 L57.1752336,26.9964623 Z M57.1752336,12.5625 C54.9140548,12.5280431 52.8564724,13.8764678 51.9674015,15.9754226 C51.0783307,18.0743774 51.5340981,20.507583 53.1209691,22.1339737 C54.70784,23.7603644 57.1110952,24.2573831 59.2037143,23.39195 C61.2963334,22.526517 62.6632938,20.4702708 62.6635514,18.1875 C62.6829926,15.1058946 60.2279816,12.5897434 57.1752336,12.5625 L57.1752336,12.5625 Z" id="Shape"></path>
            <path d="M19.0969626,37.5000782 L13.8399533,37.5000782 C12.2111698,37.5078761 10.8818155,36.186528 10.864486,34.5424528 L10.864486,32.5153302 C10.3090738,32.2531292 9.77269358,31.9516722 9.25934579,31.6132075 L7.38084112,32.6745283 C6.70414032,33.0504285 5.91163438,33.1540597 5.16238318,32.9646226 C4.39986085,32.7707289 3.74454107,32.2796909 3.33995327,31.5990566 L0.718457944,27.1804245 C0.313617376,26.4960664 0.2017924,25.674977 0.408665039,24.9057297 C0.615537678,24.1364825 1.12332982,23.4851847 1.81542056,23.1014151 L3.64135514,22.0790094 C3.6203271,21.7924528 3.60981308,21.509434 3.60981308,21.2264151 C3.60981308,20.9433962 3.60981308,20.6603774 3.64135514,20.3738208 L1.81892523,19.3514151 C1.12625789,18.9627647 0.620137448,18.3062644 0.417056075,17.5330189 C0.203262891,16.7730283 0.305784583,15.9578937 0.700934579,15.2759434 L3.33995327,10.8608491 C3.74266919,10.1807059 4.39724196,9.69055569 5.1588785,9.49882075 C5.90863543,9.30485331 6.70347808,9.40736062 7.38084112,9.78537736 L9.25934579,10.8466981 C9.771685,10.5044805 10.3081669,10.2006016 10.864486,9.9375 L10.864486,7.91391509 C10.8799038,6.26567659 12.2140971,4.94105272 13.8469626,4.95275226 L19.103972,4.95275226 C20.734109,4.94496711 22.0640244,6.26845419 22.0794393,7.91391509 L22.0794393,9.9375 C22.6355493,10.1983214 23.1720258,10.4998326 23.6845794,10.8396226 L25.5630841,9.77830189 C26.241367,9.39502816 27.0408705,9.29351294 27.7920561,9.49528302 C28.5492784,9.68641414 29.1999818,10.1739539 29.6004673,10.8502358 L32.2429907,15.2724057 C32.6499972,15.9493799 32.7640162,16.7652731 32.5584112,17.5294811 C32.3554392,18.3036737 31.849419,18.9613209 31.1565421,19.3514151 L29.3341121,20.3738208 C29.3551402,20.6603774 29.3656542,20.946934 29.3656542,21.2264151 C29.3656542,21.5058962 29.3656542,21.7924528 29.3341121,22.0790094 L31.1565421,23.1014151 C31.8413831,23.4891777 32.3456312,24.1356142 32.5584112,24.8985849 C32.764207,25.6697409 32.6503375,26.4922268 32.2429907,27.1768868 L29.603972,31.5955189 C29.1990509,32.2699421 28.5486753,32.7575636 27.7920561,32.9540094 C27.041489,33.1474594 26.2461687,33.0463163 25.5665888,32.6709906 L23.6845794,31.6096698 C23.1721329,31.9506736 22.6356537,32.2533686 22.0794393,32.5153302 L22.0794393,34.5424528 C22.0621036,36.189305 20.7284739,37.5117873 19.0969626,37.5000782 Z M14.0186916,34.3160377 L18.9252336,34.3160377 L18.9252336,30.3466981 L19.9556075,29.9610849 C20.9114607,29.6104169 21.8067413,29.1102037 22.6086449,28.4787736 L23.432243,27.8313679 L26.9859813,29.8195755 L29.3936916,25.7688679 L25.8890187,23.7948113 L26.0747664,22.6839623 C26.1503827,22.2019654 26.1855543,21.7143851 26.1799065,21.2264151 C26.1781578,20.7366933 26.1359554,20.2479716 26.0537383,19.7653302 L25.8679907,18.6580189 L29.3726636,16.6839623 L26.9859813,12.6332547 L23.432243,14.6214623 L22.6121495,13.9740566 C21.807596,13.3447214 20.9115008,12.8447135 19.9556075,12.4917453 L18.9252336,12.1061321 L18.9252336,8.13679245 L14.0186916,8.13679245 L14.0186916,12.1061321 L12.9883178,12.4917453 C12.0320011,12.8437759 11.1357679,13.3438608 10.3317757,13.9740566 L9.50817757,14.6214623 L5.95794393,12.6332547 L3.55724299,16.6839623 L7.06191589,18.6580189 L6.87266355,19.7688679 C6.70445101,20.7319599 6.70445101,21.7173326 6.87266355,22.6804245 L7.06191589,23.7948113 L3.55724299,25.7688679 L5.95794393,29.8195755 L9.50116822,27.8313679 L10.3247664,28.4787736 C11.1292269,29.1082515 12.0253449,29.6082721 12.9813084,29.9610849 L14.0186916,30.3466981 L14.0186916,34.3160377 Z" id="Shape"></path>
            <path d="M16.6366822,28.4752358 C12.6750048,28.3993128 9.51818957,25.107262 9.57195167,21.1078579 C9.62571376,17.1084537 12.8698574,13.9040792 16.832117,13.9366931 C20.7943766,13.9693069 23.9863224,17.2266577 23.9754949,21.2264151 C23.9235159,25.2701633 20.6428217,28.5106402 16.6366822,28.4752358 L16.6366822,28.4752358 Z M16.6366822,17.1191038 C14.4202403,17.1927162 12.6743161,19.0514456 12.719341,21.2895466 C12.7643659,23.5276475 14.5836058,25.3132952 16.801181,25.2960155 C19.0187562,25.2787358 20.8104705,23.464951 20.8212617,21.2264151 C20.8074238,20.1211206 20.3584048,19.0668226 19.5733128,18.2962273 C18.7882208,17.525632 17.7316047,17.1020964 16.6366822,17.1191038 Z" id="Shape"></path>
        </g>
    </g>
</svg>