<?xml version="1.0" encoding="UTF-8"?>
<svg width="44px" height="20px" viewBox="0 0 44 20" version="1.1" xmlns="http://www.w3.org/2000/svg" xmlns:xlink="http://www.w3.org/1999/xlink">
    <!-- Generator: Sketch 60.1 (88133) - https://sketch.com -->
    <title>file-to-csv-icon</title>
    <desc>Created with Sketch.</desc>
    <g id="file-to-csv-icon" stroke="none" stroke-width="1" fill="none" fill-rule="evenodd">
        <g id="Group-7-Copy" transform="translate(29.000000, 0.000000)"></g>
        <path d="M8.25,0.5 L0.9375,0.5 C0.694111125,0.5 0.5,0.694111125 0.5,0.9375 L0.5,19.0625 C0.5,19.3058889 0.694111125,19.5 0.9375,19.5 L14.0625,19.5 C14.3058889,19.5 14.5,19.3058889 14.5,19.0625 L14.5,6.75 L9.6875,6.75 C8.89573263,6.75 8.25,6.10426737 8.25,5.3125 L8.25,0.5 Z M14.4120607,4.5 C14.4001,4.48417813 14.3870049,4.46911162 14.3728287,4.45493537 L10.5487904,0.626990891 C10.5335153,0.611715854 10.5172033,0.597701897 10.5,0.585013603 L10.5,4.5 L14.4120607,4.5 Z" id="Shape-Copy-2" stroke="#ECF0F1" fill="#176332"></path>
        <path d="M17,11.309671 L17,9.688529 C17,9.42104058 17.215118,9.20218641 17.47804,9.20218641 L22.0990937,9.20218641 L22.0990937,6.48677359 C22.0990937,6.05311811 22.6129868,5.8383168 22.9157454,6.14228092 L26.8595757,10.1546073 C27.0468081,10.3450915 27.0468081,10.6531085 26.8595757,10.8435927 L22.9157454,14.8559191 C22.6129868,15.1639361 22.0990937,14.9450819 22.0990937,14.5114264 L22.0990937,11.7960136 L17.47804,11.7960136 C17.215118,11.7960136 17,11.5771594 17,11.309671 Z" id="Path" stroke="#ECF0F1" fill="#176332" fill-rule="nonzero"></path>
        <path d="M37.25,0.5 L29.9375,0.5 C29.6941111,0.5 29.5,0.694111125 29.5,0.9375 L29.5,19.0625 C29.5,19.3058889 29.6941111,19.5 29.9375,19.5 L43.0625,19.5 C43.3058889,19.5 43.5,19.3058889 43.5,19.0625 L43.5,6.75 L38.6875,6.75 C37.8957326,6.75 37.25,6.10426737 37.25,5.3125 L37.25,0.5 Z M39.578125,0.592501116 L39.578125,4.44117647 L43.4077575,4.44117647 C43.3980643,4.42898077 43.3876658,4.41728854 43.3765904,4.40616965 L43.3764103,4.40598878 L39.612125,0.623081418 C39.6013068,0.612220724 39.5899551,0.602019253 39.578125,0.592501116 Z" id="Shape-Copy-3" stroke="#ECF0F1" fill="#176332"></path>
        <path d="M33.65625,10.8529412 L33.65625,10.6176471 L33.5117187,10.6176471 C32.7153,10.6176471 32.078125,11.2282447 32.078125,11.9705882 L32.078125,13.2058824 C32.078125,13.9482259 32.7153,14.5588235 33.5117187,14.5588235 L33.65625,14.5588235 L33.65625,14.3235294 L33.5117187,14.3235294 C32.8841263,14.3235294 32.3671875,13.8281528 32.3671875,13.2058824 L32.3671875,11.9705882 C32.3671875,11.3483178 32.8841263,10.8529412 33.5117187,10.8529412 L33.65625,10.8529412 Z" id="Path" stroke="#ECF0F1"></path>
        <path d="M35.3952142,14.5588235 L35.7176229,14.5588235 C36.4048553,14.5588235 36.937761,14.0967592 36.9375002,13.5678615 C36.9375002,13.3103092 36.810661,13.0555254 36.5805758,12.8689007 L35.6915907,12.1435729 C35.5294634,12.0106995 35.4225151,11.8263187 35.4225151,11.6086091 C35.4225151,11.1460301 35.8749607,10.8530377 36.3448769,10.8530377 L36.6672856,10.8530377 L36.6672856,10.6176471 L36.3456884,10.6176471 C35.6581792,10.6176471 35.125,11.0796402 35.125,11.6086091 C35.125,11.8661616 35.251839,12.1209454 35.4819241,12.3075699 L36.3709091,13.0328977 C36.5330365,13.1657711 36.6399848,13.3501518 36.6399848,13.5678615 C36.6399848,14.0304405 36.1875391,14.3234329 35.7176229,14.3234329 L35.3952142,14.3234329 L35.3952142,14.5588235 Z" id="Path" stroke="#ECF0F1"></path>
        <path d="M38.421875,10.6176471 L38.171875,10.6176471 L38.171875,11.2294118 C38.171875,12.4728196 38.6272013,13.6398479 39.4533231,14.5190508 C39.4768424,14.5440636 39.5110637,14.5588235 39.546875,14.5588235 C39.5826863,14.5588235 39.6169076,14.5440636 39.6403056,14.5191799 C40.4665487,13.6398479 40.921875,12.4728196 40.921875,11.2294118 L40.921875,10.6176471 L40.671875,10.6176471 L40.671875,11.2294118 C40.671875,12.1003841 40.4256424,12.9614786 39.9710439,13.6898747 L39.546748,14.3697174 L39.1226349,13.6897606 C38.6680204,12.9609026 38.421875,12.1002253 38.421875,11.2294118 L38.421875,10.6176471 Z" id="Path" stroke="#ECF0F1"></path>
    </g>
</svg>