<?xml version="1.0" encoding="UTF-8"?>
<svg width="95px" height="95px" viewBox="0 0 95 95" version="1.1" xmlns="http://www.w3.org/2000/svg" xmlns:xlink="http://www.w3.org/1999/xlink">
    <!-- Generator: Sketch 59.1 (86144) - https://sketch.com -->
    <title>Icon/FiletoCSV</title>
    <desc>Created with Sketch.</desc>
    <defs>
        <path d="M26.25,15.671875 L26.25,0 L2.8125,0 C1.25390625,0 0,1.23300781 0,2.765625 L0,56.234375 C0,57.7669922 1.25390625,59 2.8125,59 L42.1875,59 C43.7460937,59 45,57.7669922 45,56.234375 L45,18.4375 L29.0625,18.4375 C27.515625,18.4375 26.25,17.1929688 26.25,15.671875 Z M45,14.0470703 L45,14.75 L30,14.75 L30,0 L30.7148438,0 C31.4648438,0 32.1796875,0.288085938 32.7070312,0.806640625 L44.1796875,12.0996094 C44.7070312,12.6181641 45,13.3210938 45,14.0470703 Z" id="path-1"></path>
        <filter x="-11.1%" y="-8.5%" width="122.2%" height="116.9%" filterUnits="objectBoundingBox" id="filter-2">
            <feGaussianBlur stdDeviation="4" in="SourceAlpha" result="shadowBlurInner1"></feGaussianBlur>
            <feOffset dx="0" dy="2" in="shadowBlurInner1" result="shadowOffsetInner1"></feOffset>
            <feComposite in="shadowOffsetInner1" in2="SourceAlpha" operator="arithmetic" k2="-1" k3="1" result="shadowInnerInner1"></feComposite>
            <feColorMatrix values="0 0 0 0 0.165401787   0 0 0 0 0.0273421621   0 0 0 0 0.348958333  0 0 0 0.3 0" type="matrix" in="shadowInnerInner1"></feColorMatrix>
        </filter>
        <path d="M65.25,44.671875 L65.25,29 L41.8125,29 C40.2539062,29 39,30.2330078 39,31.765625 L39,85.234375 C39,86.7669922 40.2539062,88 41.8125,88 L81.1875,88 C82.7460937,88 84,86.7669922 84,85.234375 L84,47.4375 L68.0625,47.4375 C66.515625,47.4375 65.25,46.1929688 65.25,44.671875 Z M54.46875,61.5801471 C54.46875,62.0834908 54.0361084,62.4911765 53.5019531,62.4911765 L52.5351562,62.4911765 C51.4668457,62.4911765 50.6015625,63.3065478 50.6015625,64.3132353 L50.6015625,67.9573529 C50.6015625,68.9640404 51.4668457,69.7794118 52.5351562,69.7794118 L53.5019531,69.7794118 C54.0361084,69.7794118 54.46875,70.1870974 54.46875,70.6904412 L54.46875,72.5125 C54.46875,73.0158438 54.0361084,73.4235294 53.5019531,73.4235294 L52.5351562,73.4235294 C49.3314331,73.4235294 46.734375,70.9762767 46.734375,67.9573529 L46.734375,64.3132353 C46.734375,61.2943116 49.3314331,58.8470588 52.5351562,58.8470588 L53.5019531,58.8470588 C54.0361084,58.8470588 54.46875,59.2547445 54.46875,59.7580882 L54.46875,61.5801471 Z M57.6593875,73.4235294 C57.1213935,73.4235294 56.6856426,73.0158119 56.6856426,72.5124288 L56.6856426,70.6902276 C56.6856426,70.1868446 57.1213935,69.779127 57.6593875,69.779127 L59.1528688,69.779127 C59.8770915,69.779127 60.4199543,69.3805205 60.4199543,69.0251913 C60.4199543,68.8771375 60.3286657,68.7222504 60.1619119,68.587863 L57.4975024,66.4501933 C56.46655,65.627925 55.875,64.4594385 55.875,63.2453969 C55.875,60.8195916 58.1900785,58.8470588 61.0370651,58.8470588 L62.528112,58.8470588 C63.0661061,58.8470588 63.5018569,59.2547763 63.5018569,59.7581594 L63.5018569,61.5803606 C63.5018569,62.0837437 63.0661061,62.4914612 62.528112,62.4914612 L61.0346308,62.4914612 C60.310408,62.4914612 59.7675452,62.8900677 59.7675452,63.2453969 C59.7675452,63.3934508 59.8588338,63.5483379 60.0255876,63.6827252 L62.6899971,65.820395 C63.7209495,66.6426633 64.3125005,67.8111498 64.3125005,69.0251913 C64.3137167,71.4498578 61.9998554,73.4235294 59.1528688,73.4235294 L57.6593875,73.4235294 Z M68.765625,62.1267647 C68.765625,64.4350855 69.4335937,66.7012711 70.640625,68.6041838 C71.8476562,66.7024099 72.515625,64.4350855 72.515625,62.1267647 L72.515625,59.7580882 C72.515625,59.2547445 72.9351562,58.8470588 73.453125,58.8470588 L75.328125,58.8470588 C75.8460937,58.8470588 76.265625,59.2547445 76.265625,59.7580882 L76.265625,62.1267647 C76.265625,66.1671801 74.75625,69.9718667 72.0140625,72.8416094 C71.6601562,73.2117151 71.1621094,73.4235294 70.640625,73.4235294 C70.1191406,73.4235294 69.6210937,73.2117151 69.2671875,72.8416094 C66.525,69.9718667 65.015625,66.1671801 65.015625,62.1267647 L65.015625,59.7580882 C65.015625,59.2547445 65.4351562,58.8470588 65.953125,58.8470588 L67.828125,58.8470588 C68.3460937,58.8470588 68.765625,59.2547445 68.765625,59.7580882 L68.765625,62.1267647 Z M83.1925049,40.957261 L71.8991089,29.7971507 C71.3800049,29.2846967 70.6763306,29 69.9380493,29 L69.234375,29 L69.234375,43.5764706 L84,43.5764706 L84,42.8818107 C84,42.164375 83.7116089,41.4697151 83.1925049,40.957261 Z" id="path-3"></path>
        <filter x="-4.4%" y="-3.4%" width="108.9%" height="106.8%" filterUnits="objectBoundingBox" id="filter-4">
            <feGaussianBlur stdDeviation="1.5" in="SourceAlpha" result="shadowBlurInner1"></feGaussianBlur>
            <feOffset dx="0" dy="1" in="shadowBlurInner1" result="shadowOffsetInner1"></feOffset>
            <feComposite in="shadowOffsetInner1" in2="SourceAlpha" operator="arithmetic" k2="-1" k3="1" result="shadowInnerInner1"></feComposite>
            <feColorMatrix values="0 0 0 0 0   0 0 0 0 0   0 0 0 0 0  0 0 0 0.5 0" type="matrix" in="shadowInnerInner1"></feColorMatrix>
        </filter>
    </defs>
    <g id="Icon/FiletoCSV" stroke="none" stroke-width="1" fill="none" fill-rule="evenodd">
        <g id="Group" transform="translate(4.000000, 4.000000)">
            <g id="Shape-Copy">
                <use fill="#AEBCC6" fill-rule="evenodd" xlink:href="#path-1"></use>
                <use fill="black" fill-opacity="1" filter="url(#filter-2)" xlink:href="#path-1"></use>
                <path stroke="#9598B0" stroke-width="1" d="M25.75,0.5 L2.8125,0.5 C1.5281851,0.5 0.5,1.51104868 0.5,2.765625 L0.5,56.234375 C0.5,57.4889513 1.5281851,58.5 2.8125,58.5 L42.1875,58.5 C43.4718149,58.5 44.5,57.4889513 44.5,56.234375 L44.5,18.9375 L29.0625,18.9375 C27.2413462,18.9375 25.75,17.4710096 25.75,15.671875 L25.75,0.5 Z M30.5,0.5 L30.5,14.25 L44.5,14.25 L44.5,14.0470703 C44.5,13.4525674 44.2590148,12.8788536 43.8289356,12.4559422 L32.3564613,1.16315246 C31.9240379,0.737936186 31.3356712,0.5 30.7148438,0.5 L30.5,0.5 Z" stroke-linejoin="square"></path>
            </g>
            <g id="Shape-Copy">
                <use fill="#176332" fill-rule="evenodd" xlink:href="#path-3"></use>
                <use fill="black" fill-opacity="1" filter="url(#filter-4)" xlink:href="#path-3"></use>
                <path stroke-opacity="0.531441215" stroke="#003D16" stroke-width="1" d="M64.75,29.5 L41.8125,29.5 C40.5281851,29.5 39.5,30.5110487 39.5,31.765625 L39.5,85.234375 C39.5,86.4889513 40.5281851,87.5 41.8125,87.5 L81.1875,87.5 C82.4718149,87.5 83.5,86.4889513 83.5,85.234375 L83.5,47.9375 L68.0625,47.9375 C66.2413462,47.9375 64.75,46.4710096 64.75,44.671875 L64.75,29.5 Z M54.96875,61.5801471 C54.96875,62.3664932 54.3058276,62.9911765 53.5019531,62.9911765 L52.5351562,62.9911765 C51.7365649,62.9911765 51.1015625,63.5895502 51.1015625,64.3132353 L51.1015625,67.9573529 C51.1015625,68.681038 51.7365649,69.2794118 52.5351562,69.2794118 L53.5019531,69.2794118 C54.3058276,69.2794118 54.96875,69.904095 54.96875,70.6904412 L54.96875,72.5125 C54.96875,73.2988462 54.3058276,73.9235294 53.5019531,73.9235294 L52.5351562,73.9235294 C49.0617139,73.9235294 46.234375,71.2592791 46.234375,67.9573529 L46.234375,64.3132353 C46.234375,61.0113092 49.0617139,58.3470588 52.5351562,58.3470588 L53.5019531,58.3470588 C54.3058276,58.3470588 54.96875,58.9717421 54.96875,59.7580882 L54.96875,61.5801471 Z M59.9193725,69.0309591 C59.9162906,69.041267 59.9000414,69.018981 59.8490165,68.9778585 L57.1857318,66.8410885 C56.0385802,65.9261419 55.375,64.6154123 55.375,63.2453969 C55.375,60.5241178 57.9300954,58.3470588 61.0370651,58.3470588 L62.528112,58.3470588 C63.335091,58.3470588 64.0018569,58.9709294 64.0018569,59.7581594 L64.0018569,61.5803606 C64.0018569,62.3675906 63.335091,62.9914612 62.528112,62.9914612 L61.0346308,62.9914612 C60.6048685,62.9914612 60.2840906,63.1888169 60.2681657,63.2415927 C60.2712089,63.2293213 60.2874581,63.2516073 60.338483,63.2927298 L63.0017678,65.4294998 C64.1489196,66.3444466 64.8125005,67.6551763 64.8125004,69.0249405 C64.8138651,71.7455912 62.2594424,73.9235294 59.1528688,73.9235294 L57.6593875,73.9235294 C56.8524085,73.9235294 56.1856426,73.2996589 56.1856426,72.5124288 L56.1856426,70.6902276 C56.1856426,69.9029976 56.8524085,69.279127 57.6593875,69.279127 L59.1528688,69.279127 C59.582631,69.279127 59.9034089,69.0817714 59.9193338,69.0289956 Z M70.6407144,67.6128991 C71.5348616,65.9422622 72.015625,64.0428149 72.015625,62.1267647 L72.015625,59.7580882 C72.015625,58.9753465 72.662168,58.3470588 73.453125,58.3470588 L75.328125,58.3470588 C76.119082,58.3470588 76.765625,58.9753465 76.765625,59.7580882 L76.765625,62.1267647 C76.765625,66.2954866 75.2069084,70.2239851 72.375436,73.1871657 C71.9263855,73.6567707 71.297416,73.9235294 70.640625,73.9235294 C69.983834,73.9235294 69.3548645,73.6567707 68.9056915,73.1870375 C66.0743416,70.2239851 64.515625,66.2954866 64.515625,62.1267647 L64.515625,59.7580882 C64.515625,58.9753465 65.162168,58.3470588 65.953125,58.3470588 L67.828125,58.3470588 C68.619082,58.3470588 69.265625,58.9753465 69.265625,59.7580882 L69.265625,62.1267647 C69.265625,64.0426029 69.7462905,65.9413496 70.6407144,67.6128991 Z M69.734375,29.5 L69.734375,43.0764706 L83.5,43.0764706 L83.5,42.8818107 C83.5,42.2954661 83.2632981,41.7297395 82.841238,41.3130862 L82.8410564,41.3129069 L71.547842,30.1529759 C71.123655,29.734223 70.5467327,29.5 69.9380493,29.5 L69.734375,29.5 Z" stroke-linejoin="square"></path>
            </g>
            <path d="M80.3442897,31.9315644 C80.1038949,31.9114464 79.8706189,31.7811436 79.716555,31.5581363 L74.8263704,24.7750966 C74.518318,24.3291242 74.5847904,23.681501 74.9740338,23.3283316 C75.3473722,22.9890676 75.8922606,23.0423182 76.2001533,23.465412 L79.6237503,28.2194824 C80.5883654,19.8450552 74.7901105,8.62908036 68.0565566,4.86786783 C61.0011829,0.926893941 48.5565566,0.367867827 42.6247692,4.76271756 C42.1517085,5.11320731 41.7361571,5.2364614 41.3647589,4.86915959 C40.9933239,4.50194422 40.8157597,3.78486684 41.2722625,3.42519737 C47.0565566,-1.13213217 61.5565566,-1.13213217 69.0565566,3.36786783 C76.5565566,7.86786783 82.4645393,19.2268468 81.4153904,28.4784722 L85.521729,24.2099987 C85.8625048,23.80686 86.4348337,23.7956217 86.7865034,24.1860343 C87.1381731,24.5764468 87.1478053,25.2323427 86.8070294,25.6354813 C86.7832529,25.6678862 86.7515185,25.6957389 86.7197473,25.7236782 L81.0145606,31.6668954 C80.8359851,31.8524966 80.5927178,31.9562765 80.3442897,31.9315644 Z" id="Path-Copy" fill="#3B1763" fill-rule="nonzero"></path>
        </g>
    </g>
</svg>