<?xml version="1.0" encoding="UTF-8"?>
<svg width="80px" height="80px" viewBox="0 0 80 80" version="1.1" xmlns="http://www.w3.org/2000/svg" xmlns:xlink="http://www.w3.org/1999/xlink">
    <!-- Generator: Sketch 59.1 (86144) - https://sketch.com -->
    <title>icon/csv/extract</title>
    <desc>Created with Sketch.</desc>
    <g id="icon/csv/extract" stroke="none" stroke-width="1" fill="none" fill-rule="evenodd">
        <g id="convert-csv-icons-09" transform="translate(2.000000, 2.000000)" fill="#176332" fill-rule="nonzero">
            <path d="M50.3525943,28.6436916 C48.7895243,28.6436916 47.5224057,27.3884152 47.5224057,25.8399533 C47.5224057,24.2914914 48.7895243,23.036215 50.3525943,23.036215 L50.3525943,23.036215 C51.9156644,23.036215 53.182783,24.2914914 53.182783,25.8399533 C53.182783,27.3884152 51.9156644,28.6436916 50.3525943,28.6436916 Z M50.3525943,25.1390187 L50.3525943,25.1390187 C49.9618268,25.1390187 49.6450472,25.4528378 49.6450472,25.8399533 C49.6450472,26.2270687 49.9618268,26.5408879 50.3525943,26.5408879 L50.3525943,26.5408879 C50.7433619,26.5408879 51.0601415,26.2270687 51.0601415,25.8399533 C51.0601415,25.4528378 50.7433619,25.1390187 50.3525943,25.1390187 Z" id="Shape"></path>
            <path d="M56.8584906,28.6401869 C55.2954205,28.6401869 54.0283019,27.3849105 54.0283019,25.8364486 C54.0283019,24.2879867 55.2954205,23.0327103 56.8584906,23.0327103 L56.8584906,23.0327103 C58.4215606,23.0327103 59.6886792,24.2879867 59.6886792,25.8364486 L59.6886792,25.8364486 C59.6886792,27.3849105 58.4215606,28.6401869 56.8584906,28.6401869 Z M56.8584906,25.135514 L56.8584906,25.135514 C56.4677231,25.135514 56.1509434,25.4493331 56.1509434,25.8364486 C56.1509434,26.2235641 56.4677231,26.5373832 56.8584906,26.5373832 L56.8584906,26.5373832 C57.2492581,26.5373832 57.5660377,26.2235641 57.5660377,25.8364486 L57.5660377,25.8364486 C57.5660377,25.4493331 57.2492581,25.135514 56.8584906,25.135514 Z" id="Shape"></path>
            <path d="M63.3643868,28.6366947 C61.8013167,28.6366947 60.5341981,27.3814058 60.5341981,25.8329439 C60.5341981,24.284482 61.8013167,23.0292056 63.3643868,23.0292056 L63.3643868,23.0292056 C64.5082293,23.0297296 65.539301,23.7122961 65.977426,24.7590302 C66.415551,25.8057643 66.1745843,27.0108547 65.3667453,27.8130841 C64.8389852,28.3421467 64.1187502,28.6389138 63.3679245,28.6366947 L63.3643868,28.6366947 Z M63.3643868,25.1320093 L63.3643868,25.1320093 C63.1770365,25.1327919 62.9976475,25.2071538 62.865566,25.338785 C62.732693,25.4696321 62.6576295,25.6473446 62.6568396,25.8329439 C62.6568396,26.2200594 62.9736193,26.5338785 63.3643868,26.5338785 L63.3643868,26.5338785 C63.7551543,26.5338785 64.071934,26.2200594 64.071934,25.8329439 C64.071934,25.4458284 63.7551543,25.1320093 63.3643868,25.1320093 L63.3643868,25.1320093 Z" id="Shape"></path>
            <g id="Group" transform="translate(22.000000, 42.000000)">
                <path d="M1.77948153,21.9957692 C0.78251602,21.9795346 -0.013436314,21.1391446 0.00017192286,20.1173077 L0.00017192286,1.86153846 C0.00272138119,1.39259807 0.173132475,0.94089893 0.479186941,0.592307692 C0.812149563,0.216367086 1.28409722,0.00138639655 1.77948153,0 L28.776074,0 C29.7730395,0.0162346235 30.5689919,0.85662466 30.5553836,1.87846154 L30.5553836,20.1342308 C30.55439,20.6034716 30.3837714,21.0557208 30.0763686,21.4034615 C29.7447625,21.7818428 29.2723166,21.9985876 28.776074,22 L1.77948153,21.9957692 Z M2.4770999,2.53423077 L2.4770999,19.4573077 L28.0701998,19.4573077 L28.0701998,2.53423077 L2.4770999,2.53423077 Z" id="Shape"></path>
                <path d="M15.2694976,14.6663634 C14.9813343,14.6671606 14.7018774,14.5637957 14.4790314,14.3739875 L0.449290467,2.29628307 C0.10774136,2.00211697 -0.056806611,1.54098997 0.0176301841,1.08660414 C0.0920669791,0.632218314 0.39417982,0.253605687 0.810165717,0.0933859806 C1.22615161,-0.0668337257 1.69281241,0.0156806752 2.03436149,0.309846805 L15.2777747,11.7039076 L28.5211879,0.296947868 C29.0491771,-0.157793449 29.832027,-0.0817552514 30.2697323,0.466783942 C30.7074375,1.01532314 30.634248,1.82864272 30.106259,2.28338413 L16.0889338,14.3696879 C15.8590268,14.5677585 15.568099,14.6730884 15.2694976,14.6663634 L15.2694976,14.6663634 Z" id="Path"></path>
            </g>
            <path d="M6.36792453,74.6495327 C3.05306604,74.6495327 0.353773585,71.7406542 0.353773585,68.1588785 L0.353773585,31.5735981 L74.6464668,31.5420561 L74.6464668,68.1273364 C74.6603032,69.7898781 74.0557917,71.3993192 72.9481132,72.6483645 C71.8664326,73.8951175 70.2915485,74.6150956 68.6320755,74.6214953 L6.36792453,74.6495327 Z M3.53773585,34.7278037 L3.55542453,68.1588785 C3.55542453,69.9988318 4.8254717,71.4953271 6.38561321,71.4953271 L6.38561321,71.4953271 L68.6497642,71.4672897 C69.3977008,71.4527592 70.1029758,71.1193836 70.5849057,70.5525701 C71.1727509,69.8801179 71.4901052,69.0167976 71.4768402,68.1273364 L71.4622642,34.6962617 L3.53773585,34.7278037 Z" id="Shape"></path>
            <path d="M20.8266509,27.1963343 C20.7084035,27.1963343 20.5902575,27.1893967 20.4728774,27.1752336 C19.3068847,27.0191967 18.4272849,26.0483585 18.3962264,24.8831776 L18.3962264,24.7044393 C18.3962264,23.3025701 18.6226415,16.0969626 23.1863208,11.239486 C24.4457547,9.89018692 27.9976415,6.80257009 34.6698113,5.78271028 L34.6698113,2.62850467 C34.6740915,1.68562824 35.2423457,0.83501935 36.1167453,0.462616822 C36.9714389,0.105595444 37.9558697,0.251677132 38.6674528,0.841121495 L50.4445755,10.6331776 C51.0074544,11.0965114 51.3223055,11.7917462 51.2973947,12.5163202 C51.2724839,13.2408942 50.9106134,13.9132961 50.317217,14.3376168 L38.5400943,22.8329439 C37.832459,23.3415695 36.9047322,23.4377499 36.1061321,23.0852804 C35.2952502,22.7311043 34.7500334,21.9600811 34.6910377,21.0841121 L34.6910377,21.0841121 L34.4823113,17.9053738 C32.3521492,17.9499751 30.265425,18.5107001 28.4044811,19.5385514 C26.0187251,20.9221505 24.1607885,23.0473097 23.1191038,25.5841121 C22.7853238,26.5546238 21.861587,27.2042345 20.8266509,27.1963343 Z M37.8537736,4.28271028 L37.8537736,8.59696262 L36.3431604,8.74766355 C29.8726415,9.42056075 26.6143868,12.2102804 25.5141509,13.3808411 C23.2889151,15.75 22.3301887,18.8691589 21.8985849,21.2593458 C23.1863522,19.4252394 24.8696573,17.897728 26.8266509,16.7873832 C29.2691697,15.4403127 32.0193495,14.7356649 34.8148585,14.7406542 C35.2323113,14.7406542 35.6391509,14.7406542 36.0176887,14.7897196 L37.4610849,14.9053738 L37.7653302,19.489486 L47.6073113,12.3890187 L37.8537736,4.28271028 Z" id="Shape"></path>
            <path d="M1.94929245,34.6962617 C1.06949144,34.6962617 0.355724363,33.9907353 0.353548304,33.1191589 L0.353548304,22.0163551 C0.340153385,20.35284 0.944550546,18.7424557 2.05188679,17.4918224 C3.13537626,16.2478864 4.70942991,15.5295662 6.36792453,15.5221963 L20.6851415,15.4205607 L20.6851415,15.4205607 C21.5643684,15.4205607 22.2771226,16.1266537 22.2771226,16.9976636 C22.2771226,17.8686734 21.5643684,18.5747663 20.6851415,18.5747664 L6.36792453,18.6764019 C5.61604279,18.6869896 4.90593549,19.0208185 4.42216981,19.5911215 C3.83629881,20.2642587 3.52141984,21.127698 3.53773585,22.0163551 L3.53773585,31.5420561 L71.4622642,31.510514 L71.4622642,21.9077103 C71.4622642,20.067757 70.192217,18.5747664 68.6320755,18.5747664 L68.6320755,18.5747664 L44.4268868,18.8831776 L44.4056604,18.8831776 C43.5264335,18.8889843 42.8089276,18.1875986 42.803066,17.3165888 C42.7972045,16.445579 43.5052071,15.7347787 44.384434,15.728972 L68.6037736,15.4205607 L68.6037736,15.4205607 C71.9398585,15.4205607 74.6179245,18.3294393 74.6391509,21.9042056 L74.6391509,33.0876168 C74.6391509,33.9586266 73.9263967,34.6647196 73.0471698,34.6647196 L1.95283019,34.6962617 L1.94929245,34.6962617 Z" id="Path"></path>
        </g>
    </g>
</svg>