<?xml version="1.0" encoding="UTF-8"?>
<svg width="80px" height="80px" viewBox="0 0 80 80" version="1.1" xmlns="http://www.w3.org/2000/svg" xmlns:xlink="http://www.w3.org/1999/xlink">
    <!-- Generator: Sketch 59.1 (86144) - https://sketch.com -->
    <title>icon/csv/filter</title>
    <desc>Created with Sketch.</desc>
    <g id="icon/csv/filter" stroke="none" stroke-width="1" fill="none" fill-rule="evenodd">
        <g id="convert-csv-icons-06" transform="translate(6.000000, 2.000000)" fill="#176332" fill-rule="nonzero">
            <path d="M28.9198942,75.0000021 C28.1141551,75.0009388 27.3410433,74.6824138 26.7706349,74.1144969 C26.2002266,73.54658 25.8792465,72.7757921 25.8783069,71.9716981 L25.8783069,36.9976415 L0.684179894,4.89268868 C-0.0210501545,3.97955264 -0.149985804,2.74758282 0.350952381,1.70872642 C0.854973726,0.661911403 1.91682099,-0.00279653232 3.08058201,-8.78974949e-06 L63.919418,-8.78974949e-06 C65.0798766,-8.78974949e-06 66.1390725,0.659295074 66.6480678,1.70004083 C67.1570632,2.74078658 67.0267166,3.98009528 66.3122751,4.89268868 L41.1216931,36.9976415 L41.1216931,59.7169811 C41.1202057,60.3679025 40.9102934,61.001312 40.5225926,61.5247642 L31.355291,73.7830189 C30.7791899,74.5468226 29.8778454,74.9972294 28.9198942,75.0000021 Z M3.39608466,3.18396226 L29.0687831,35.9009434 L29.0687831,71.5188679 L37.9312169,59.6674528 L37.9312169,35.9009434 L63.6039153,3.18396226 L3.39608466,3.18396226 Z" id="Shape"></path>
        </g>
    </g>
</svg>