<?xml version="1.0" encoding="UTF-8"?>
<svg width="80px" height="80px" viewBox="0 0 80 80" version="1.1" xmlns="http://www.w3.org/2000/svg" xmlns:xlink="http://www.w3.org/1999/xlink">
    <!-- Generator: Sketch 59.1 (86144) - https://sketch.com -->
    <title>icon/csv/flexible</title>
    <desc>Created with Sketch.</desc>
    <g id="icon/csv/flexible" stroke="none" stroke-width="1" fill="none" fill-rule="evenodd">
        <g id="convert-csv-icons-01" transform="translate(2.000000, 2.000000)" fill="#006633" fill-rule="nonzero">
            <path d="M35.3971963,75 C28.7986827,74.9855878 22.3779688,72.8396223 17.0747664,68.8761792 C10.1810748,63.7747642 5.25700935,55.9740566 3.15420561,46.9103774 C1.18808411,38.3419811 2.02920561,29.7417453 5.50934579,22.5283019 L1.65420561,19.6981132 C0.740319356,19.0654758 0.239522531,17.9812477 0.346962617,16.8679245 C0.493248492,15.7702511 1.23212735,14.8457796 2.26401869,14.4693396 L18.6834112,7.09316038 C18.7096627,7.08101804 18.7365751,7.07038778 18.7640187,7.06132075 C19.7379952,6.66064527 20.8477104,6.7943188 21.7009346,7.41509434 C22.5008737,8.03273361 22.9823879,8.98145401 23.0116822,9.99764151 L23.0116822,10.0613208 L23.239486,29.8266509 C23.3314757,30.916682 22.8311513,31.971453 21.932243,32.5825472 C20.9462655,33.1678955 19.7043473,33.076338 18.8130841,32.3525943 L15.6168224,29.9929245 C11.8878505,39.5448113 15.3609813,51.75 23.8668224,58.0400943 C29.3562012,62.1563446 36.5951387,63.0286888 42.8901869,60.3325472 L43.4299065,60.1025943 C43.8235586,59.9310249 44.2698993,59.9310249 44.6635514,60.1025943 C45.0567741,60.2737595 45.3650485,60.5976956 45.5186916,61.0011792 L48.9567757,70.1816038 C49.2557839,70.9794498 48.8786666,71.8734119 48.1016355,72.2087264 L47.5303738,72.4563679 C43.7002928,74.1310795 39.5711621,74.9967216 35.3971963,75 Z M3.76401869,17.2818396 L8.47079439,20.7629717 C9.10666331,21.2330842 9.2998975,22.1055491 8.9228972,22.8042453 C1.40186916,36.7924528 5.98948598,56.7275943 18.9252336,66.3042453 C23.6913152,69.8711361 29.4641215,71.8028131 35.3971963,71.816038 C38.846056,71.816038 42.2637935,71.1575377 45.4696262,69.8738208 L43.1390187,63.6544811 C36.0371295,66.3119788 28.0856708,65.1645792 22.0058411,60.6049528 C16.9155054,56.7716071 13.3078927,51.2672287 11.8037383,45.0389151 C10.2231308,38.6992925 10.853972,32.2287736 13.5560748,26.8195755 C13.7658266,26.4033494 14.1460433,26.1010766 14.5960536,25.9927908 C15.0460638,25.884505 15.5204808,25.9811275 15.8936916,26.2570755 L20.0642523,29.3349057 L19.8434579,10.1356132 C19.8458019,10.1061795 19.8458019,10.0766035 19.8434579,10.0471698 L3.76401869,17.2818396 Z" id="Shape"></path>
            <path d="M55.0619159,68.1618944 C54.4316377,68.1641252 53.8172608,67.9619489 53.3095794,67.5849057 C52.5096403,66.9672664 52.0281262,66.018546 51.9988318,65.0023585 L51.9988318,64.9386792 L51.771028,45.1733491 C51.6790383,44.083318 52.1793627,43.028547 53.078271,42.4174528 C54.0642485,41.8321045 55.3061668,41.923662 56.1974299,42.6474057 L59.3936916,45.0070755 C63.1226636,35.4551887 59.6495327,23.25 51.1436916,16.9599057 C45.6543128,12.8436554 38.4153753,11.9713112 32.1203271,14.6674528 L31.5806075,14.8974057 C31.1869554,15.0689751 30.7406147,15.0689751 30.3469626,14.8974057 C29.9537399,14.7262405 29.6454655,14.4023044 29.4918224,13.9988208 L26.0432243,4.81485849 C25.7442161,4.01701251 26.1213334,3.12305039 26.8983645,2.78773585 L27.4696262,2.54009434 C31.2999614,0.866597649 35.4290821,0.00216159354 39.6028037,1.42108547e-14 C46.2013173,0.0144122327 52.6220312,2.16037766 57.9252336,6.12382075 C64.8364486,11.2252358 69.7429907,19.0259434 71.8457944,28.0896226 C73.8119159,36.6580189 72.9707944,45.2582547 69.4906542,52.4716981 L73.3457944,55.3018868 C74.253855,55.9313288 74.7538799,57.0071196 74.6530374,58.1143868 C74.5117049,59.2082675 73.7817168,60.1331065 72.7570093,60.5165094 L56.3165888,67.9245283 C56.2903373,67.9366706 56.2634249,67.9473009 56.2359813,67.9563679 C55.8606532,68.0977985 55.4625009,68.1673826 55.0619159,68.1618944 Z M55.1425234,64.8573113 C55.1401794,64.886745 55.1401794,64.9163211 55.1425234,64.9457547 L71.2254673,57.7181604 L66.5186916,54.2370283 C65.8828227,53.7669158 65.6895885,52.8944509 66.0665888,52.1957547 C73.5981308,38.2075472 69.010514,18.2724057 56.0747664,8.69575472 C51.3086848,5.12886386 45.5358785,3.19718691 39.6028037,3.18396195 C36.153944,3.18396195 32.7362065,3.84246227 29.5303738,5.12617925 L31.8609813,11.3455189 C38.9628705,8.68802121 46.9143292,9.83542076 52.9941589,14.3950472 C58.0844946,18.2283929 61.6921073,23.7327713 63.1962617,29.9610849 C64.7768692,36.3007075 64.146028,42.7712264 61.4264019,48.1804245 C61.21665,48.5966506 60.8364333,48.8989234 60.3864231,49.0072092 C59.9364128,49.115495 59.4619959,49.0188725 59.088785,48.7429245 L54.9182243,45.6650943 L55.1425234,64.8573113 Z" id="Shape"></path>
        </g>
    </g>
</svg>