<?xml version="1.0" encoding="UTF-8"?>
<svg width="80px" height="80px" viewBox="0 0 80 80" version="1.1" xmlns="http://www.w3.org/2000/svg" xmlns:xlink="http://www.w3.org/1999/xlink">
    <!-- Generator: Sketch 59.1 (86144) - https://sketch.com -->
    <title>icon/csv/paste</title>
    <desc>Created with Sketch.</desc>
    <g id="icon/csv/paste" stroke="none" stroke-width="1" fill="none" fill-rule="evenodd">
        <g id="convert-csv-icons-04" transform="translate(6.000000, 2.000000)" fill="#176332" fill-rule="nonzero">
            <path d="M61.9839572,75 L27.9465241,75 C25.1762401,75 22.9304813,72.7825424 22.9304813,70.0471698 L22.9304813,27.2617925 C22.9383805,24.5124094 25.1978685,22.2877358 27.9823529,22.2877358 L49.0855615,22.2877358 L49.0855615,38.5400943 C49.0914794,39.531832 49.9084237,40.3321543 50.9128342,40.3301887 L67,40.3301887 L67,70.0471698 C67,72.7825424 64.7542412,75 61.9839572,75 Z M27.9823529,25.4716945 C26.9779424,25.4697325 26.1609982,26.2700548 26.1550802,27.2617925 L26.1550802,70.0471698 C26.1550802,71.0240886 26.9571369,71.8160377 27.9465241,71.8160377 L61.9839572,71.8160377 C62.9733443,71.8160377 63.7754011,71.0240886 63.7754011,70.0471698 L63.7754011,43.5141509 L50.9128342,43.5141509 C48.1283498,43.514162 45.8688618,41.2894774 45.8609626,38.5400943 L45.8609626,25.4716945 L27.9823529,25.4716945 Z M21.4973262,61.5566493 L5.03754011,61.5566493 C3.70348206,61.5622492 2.4221023,61.0429279 1.47675721,60.1134795 C0.531412114,59.1840311 0,57.9210318 0,56.6037736 L0,9.55188679 C0.0138173368,6.80836748 2.27330905,4.59317289 5.05187166,4.5990566 L15.728877,4.5990566 C17.7610007,1.78689825 21.044079,0.11761101 24.5427807,0.11761101 C28.0414825,0.11761101 31.3245608,1.78689825 33.3566845,4.5990566 L44.0336898,4.5990566 C46.8122524,4.59317289 49.0717442,6.80836748 49.0855615,9.55188679 L49.0855615,21.2264151 L27.8784492,21.2264151 C24.369714,21.2166169 21.515093,24.013107 21.4973262,27.4775943 L21.4973262,61.5566493 Z M5.05187166,7.78301887 C4.05336908,7.77515585 3.2364075,8.56600502 3.22459893,9.55188679 L3.22459893,56.6037736 C3.22459893,57.0766075 3.41625343,57.5297729 3.7568782,57.862117 C4.09750297,58.194461 4.55870592,58.3783155 5.03754011,58.372769 L18.2727273,58.372769 L18.2727273,27.4775943 C18.2924778,22.2554652 22.5896395,18.0346134 27.8784492,18.0424528 L45.8609626,18.0424528 L45.8609626,9.55188679 C45.849154,8.56600502 45.0321924,7.77515585 44.0336898,7.78301887 L31.5580749,7.78301887 L31.0887166,6.99764151 C29.7237305,4.70787283 27.2336755,3.30209935 24.5427807,3.30209935 C21.851886,3.30209935 19.361831,4.70787283 17.9968449,6.99764151 L17.5274866,7.78301887 L5.05187166,7.78301887 Z M67.0000086,38.9150943 L50.1604278,38.9150943 L50.1604278,22.2877303 L52.6254545,22.2877303 C53.9600676,22.2857588 55.2404537,22.8090287 56.183262,23.7417453 L65.531016,32.9716981 C66.4736961,33.8992787 67.0024697,35.1599831 67.0000086,36.4740566 L67.0000086,38.9150943 Z M53.3850267,35.7311321 L63.6105882,35.7311321 C63.5230475,35.5425375 63.4016618,35.3711433 63.2522995,35.2252358 L53.9045455,25.995283 C53.7539389,25.8479322 53.5780372,25.7281494 53.3850267,25.6415094 L53.3850267,35.7311321 Z M24.567861,15.5271226 C21.797577,15.5271226 19.5518182,13.309665 19.5518182,10.5742925 C19.5518182,7.83891987 21.797577,5.62146226 24.567861,5.62146226 C27.3381449,5.62146226 29.5839037,7.83891987 29.5839037,10.5742925 C29.5839037,13.309665 27.3381449,15.5271226 24.567861,15.5271226 L24.567861,15.5271226 Z M24.567861,8.80542453 C23.5784738,8.80542453 22.7764171,9.59737367 22.7764171,10.5742925 C22.7764171,11.5512112 23.5784738,12.3431604 24.567861,12.3431604 C25.5572481,12.3431604 26.3593371,11.5512112 26.3593371,10.5742925 C26.3621667,10.1033233 26.1746901,9.6506735 25.8384185,9.31664743 C25.5021469,8.98262136 25.0448496,8.79481132 24.567861,8.79481132 L24.567861,8.80542453 Z" id="Shape"></path>
        </g>
    </g>
</svg>