<?xml version="1.0" encoding="UTF-8"?>
<svg width="80px" height="80px" viewBox="0 0 80 80" version="1.1" xmlns="http://www.w3.org/2000/svg" xmlns:xlink="http://www.w3.org/1999/xlink">
    <!-- Generator: Sketch 59.1 (86144) - https://sketch.com -->
    <title>icon/csv/quotes</title>
    <desc>Created with Sketch.</desc>
    <g id="icon/csv/quotes" stroke="none" stroke-width="1" fill="none" fill-rule="evenodd">
        <g id="convert-csv-icons-08" transform="translate(3.000000, 2.000000)" fill="#176332" fill-rule="nonzero">
            <g id="Group" transform="translate(0.000000, 0.000000)">
                <path d="M45.3758173,74.7394366 C44.6218683,74.7362794 43.8933423,74.4656161 43.3191827,73.9753521 C42.5497441,73.3144667 42.109407,72.3471844 42.1153846,71.3309859 L42.1153846,66.8802817 C42.0980734,65.2450755 43.2593332,63.8359822 44.8634135,63.5457746 C44.9409138,63.5335387 45.0172322,63.514691 45.0915385,63.4894366 C45.2740385,63.0774648 45.2740385,61.5704225 45.2740385,60.1126761 L45.2740385,59.3661972 C45.2740385,59.221831 45.1898077,59.1549296 45.16875,59.1549296 L41.1677885,59.1549296 C39.3343133,59.1202319 37.8745042,57.603665 37.9038462,55.7640845 L37.9038462,45.9964789 C37.8745042,44.1568983 39.3343133,42.6403315 41.1677885,42.6056338 L51.4860577,42.6056338 C53.3195328,42.6403315 54.779342,44.1568983 54.75,45.9964789 L54.75,57.3591549 C54.75,65.2042254 53.6971154,73.3978873 45.8882212,74.6971831 C45.718848,74.7252136 45.5474792,74.7394366 45.3758173,74.7394366 L45.3758173,74.7394366 Z M41.1677885,45.7746479 C41.1467308,45.7746479 41.0625,45.8485915 41.0625,45.9964789 L41.0625,55.7640845 C41.0625,55.9119718 41.1467308,55.9859155 41.1677885,55.9859155 L45.16875,55.9859155 C46.9988862,56.018705 48.4581114,57.5299426 48.4326923,59.3661972 L48.4326923,60.1126761 C48.4326923,63.7429577 48.4326923,66.1443662 45.4038942,66.6690141 C45.3171919,66.7009225 45.2635287,66.7882293 45.2740385,66.8802817 L45.2740385,71.3309859 C45.2660419,71.4252159 45.3088787,71.5165428 45.3863462,71.5704225 C49.7874038,70.834507 51.5913462,66.7183099 51.5913462,57.3591549 L51.5913462,45.9964789 C51.5913462,45.8485915 51.5071154,45.7746479 51.4860577,45.7746479 L41.1677885,45.7746479 Z" id="Shape"></path>
                <path d="M27.8277404,74.6971988 C27.0725422,74.6995599 26.3411003,74.4324817 25.7640865,73.943662 C24.9965426,73.2865108 24.5583512,72.3221642 24.5673077,71.3098592 L24.5673077,66.8028169 C24.5454598,65.1617221 25.7064424,63.7440396 27.3153365,63.4471831 C27.3916268,63.4346407 27.466754,63.4157973 27.5399519,63.3908451 C27.7259615,62.9788732 27.7259615,61.443662 27.7259615,59.9577465 L27.7259615,59.3767606 C27.7350425,59.2888694 27.6944073,59.2032556 27.6206731,59.1549296 L23.6197115,59.1549296 C21.7862364,59.1202319 20.3264272,57.603665 20.3557692,55.7640845 L20.3557692,45.9964789 C20.3264272,44.1568983 21.7862364,42.6403315 23.6197115,42.6056338 L33.9379808,42.6056338 C35.7681169,42.6384233 37.2273422,44.1496609 37.2019231,45.9859155 L37.2019231,57.5035211 C37.2019231,65.25 36.1490385,73.3697183 28.3366346,74.6549296 C28.1684427,74.6829719 27.9982389,74.6971988 27.8277404,74.6971988 Z M23.6197115,45.7746479 C23.5459773,45.822974 23.5053421,45.9085877 23.5144231,45.9964789 L23.5144231,55.7640845 C23.5053421,55.8519757 23.5459773,55.9375894 23.6197115,55.9859155 L27.6206731,55.9859155 C29.4541482,56.0206132 30.9139574,57.53718 30.8846154,59.3767606 L30.8846154,59.9577465 C30.8846154,63.6197183 30.8846154,66.0387324 27.8558173,66.5669014 C27.7676164,66.6105564 27.7158125,66.7046712 27.7259615,66.8028169 L27.7259615,71.3098592 C27.7197586,71.3962567 27.7598736,71.4794329 27.83125,71.528169 C32.2428365,70.8028169 34.0432692,66.7394366 34.0432692,57.5035211 L34.0432692,45.9859155 C34.0432692,45.8415493 33.9590385,45.7746479 33.9379808,45.7746479 L23.6197115,45.7746479 Z" id="Shape"></path>
                <path d="M36.6017788,32.091565 C35.8465807,32.0939261 35.1151388,31.8268479 34.538125,31.3380282 C33.770581,30.680877 33.3323897,29.7165304 33.3413462,28.7042254 L33.3413462,24.2464789 C33.3194982,22.6053841 34.4804809,21.1877015 36.089375,20.8908451 C36.1656652,20.8783027 36.2407925,20.8594593 36.3139904,20.834507 C36.5,20.4225352 36.5,18.8873239 36.5,17.4014085 L36.5,16.7711268 C36.5090809,16.6832356 36.4684458,16.5976218 36.3947115,16.5492958 L32.39375,16.5492958 C30.5602749,16.5145981 29.1004657,14.9980312 29.1298077,13.1584507 L29.1298077,3.39084507 C29.1004657,1.55126454 30.5602749,0.034697686 32.39375,-3.55271368e-15 L42.7120192,-3.55271368e-15 C44.5421554,0.0327894818 46.0013806,1.5440271 45.9759615,3.38028169 L45.9759615,14.8978873 C45.9759615,22.6443662 44.9230769,30.7640845 37.1106731,32.0492958 C36.9424812,32.0773381 36.7722773,32.091565 36.6017788,32.091565 Z M32.39375,3.16901408 C32.3200158,3.21734015 32.2793806,3.30295387 32.2884615,3.39084507 L32.2884615,13.1584507 C32.2793806,13.2463419 32.3200158,13.3319556 32.39375,13.3802817 L36.3947115,13.3802817 C38.2281867,13.4149794 39.6879958,14.9315462 39.6586538,16.7711268 L39.6586538,17.4014085 C39.6586538,21.0633803 39.6586538,23.4823944 36.6298558,24.0140845 C36.5772115,24.0140845 36.5,24.1091549 36.5,24.2464789 L36.5,28.7042254 C36.4953191,28.7913001 36.5349594,28.8748177 36.6052885,28.9260563 C41.016875,28.1971831 42.8173077,24.1338028 42.8173077,14.8978873 L42.8173077,3.38028169 C42.8173077,3.23591549 42.7330769,3.16901408 42.7120192,3.16901408 L32.39375,3.16901408 Z" id="Shape"></path>
                <path d="M71.4206731,39.084507 L1.57932692,39.084507 C0.707088748,39.084507 7.10542736e-15,38.3750991 7.10542736e-15,37.5 C7.10542736e-15,36.6249009 0.707088748,35.915493 1.57932692,35.915493 L71.4206731,35.915493 C72.2929113,35.915493 73,36.6249009 73,37.5 C73,38.3750991 72.2929113,39.084507 71.4206731,39.084507 L71.4206731,39.084507 Z" id="Path"></path>
            </g>
        </g>
    </g>
</svg>