<?xml version="1.0" encoding="UTF-8"?>
<svg width="80px" height="80px" viewBox="0 0 80 80" version="1.1" xmlns="http://www.w3.org/2000/svg" xmlns:xlink="http://www.w3.org/1999/xlink">
    <!-- Generator: Sketch 59.1 (86144) - https://sketch.com -->
    <title>icon/csv/security</title>
    <desc>Created with Sketch.</desc>
    <g id="icon/csv/security" stroke="none" stroke-width="1" fill="none" fill-rule="evenodd">
        <g id="convert-csv-icons_Artboard-15-10" transform="translate(5.000000, 2.000000)" fill="#176332" fill-rule="nonzero">
            <path d="M35,74.6495339 C33.9121977,74.6495339 32.8348508,74.4369693 31.829,74.0221963 C23.541,70.5735981 15.8235,63.8271028 10.0905,55.0233645 C3.5,44.8598131 -1.44712999e-05,32.6635514 -1.44712999e-05,19.713785 C-0.0062440193,16.3736786 2.00860911,13.3626063 5.096,12.0981308 L31.85,0.981308411 C33.880412,0.1333716 36.165088,0.1333716 38.1955,0.981308411 L64.9355,12.0981308 C68.0092664,13.3740213 70.009578,16.3819553 70.0000342,19.713785 C70.0000342,33.5817757 66.1115,46.3808411 58.751,56.7231308 C50.785,67.9380841 41.7025,72.546729 38.1675,74.0186916 C37.1627439,74.4334341 36.0867771,74.6477243 35,74.6495339 Z M35,3.5046729 C34.3247231,3.5060572 33.6563325,3.64062833 33.033,3.90070093 L6.3,15.010514 C4.39282584,15.7913286 3.1475794,17.6506084 3.14999648,19.713785 C3.14999648,38.4778037 12.4985,62.5654206 33.0295,71.1063084 C34.2887881,71.6233673 35.7007119,71.6233673 36.96,71.1063084 C43.799,68.2640187 50.988,62.2044393 56.1855,54.8971963 C63.161,45.0876168 66.8500051,32.9228972 66.8500051,19.713785 C66.8529124,17.6513019 65.607257,15.7927973 63.7,15.0140187 L63.7,15.0140187 L36.96,3.89719626 C36.3381563,3.64069331 35.672533,3.50739092 35,3.5046729 Z" id="Shape"></path>
            <path d="M36.5715,48.0140215 L33.4215,48.0140215 C32.169147,48.0120954 31.1538519,46.9970113 31.15,45.7429907 L31.15,42.6553738 C30.4838188,41.8141834 30.1233899,40.7710049 30.1279563,39.6974299 C30.1987756,37.0530634 32.3599611,34.9462134 35.00175,34.9462134 C37.6435389,34.9462134 39.8047244,37.0530634 39.8755229,39.6974299 C39.8788364,40.7713792 39.5171889,41.8145124 38.85,42.6553738 L38.85,45.7429907 C38.8461397,46.9997468 37.8265849,48.0159581 36.5715,48.0140215 L36.5715,48.0140215 Z M34.3,44.8598131 L35.7,44.8598131 L35.7,41.3551402 L36.197,40.8890187 C36.5323408,40.5792703 36.7238168,40.1437476 36.7255,39.6869159 C36.6839517,38.7638653 35.9245057,38.0369088 35.00175,38.0369088 C34.0789943,38.0369088 33.3195483,38.7638653 33.278,39.6869159 C33.2783563,40.1433048 33.4685994,40.5789083 33.803,40.8890187 L34.3,41.3551402 L34.3,44.8598131 Z" id="Shape"></path>
            <path d="M46.039,53.6214953 L23.961,53.6214953 C21.9321545,53.6118387 20.2941858,51.9591389 20.2999846,49.9275701 L20.2999846,32.7827103 C20.2995478,31.0845332 21.4543718,29.604385 23.1,29.1939252 L23.1,26.5654206 C23.1,19.8876786 28.5061616,14.4742991 35.175,14.4742991 C41.8438384,14.4742991 47.25,19.8876786 47.25,26.5654206 L47.25,29.2955607 C48.7258661,29.8258392 49.7075784,31.2301577 49.7000436,32.8002336 L49.7000436,49.9450935 C49.696175,51.9698264 48.0610141,53.6118665 46.039,53.6214953 L46.039,53.6214953 Z M23.961,32.2429907 C23.6718507,32.2525228 23.4440955,32.4930784 23.4498877,32.7827103 L23.4498877,49.9275701 C23.4440955,50.217202 23.6718507,50.4577576 23.961,50.4672897 L46.039,50.4672897 C46.3281493,50.4577576 46.5559045,50.217202 46.5501123,49.9275701 L46.5501123,32.7827103 C46.5559045,32.4930784 46.3281493,32.2525228 46.039,32.2429907 L44.1,32.2429907 L44.1,26.5654206 C44.1000001,23.372568 42.3989047,20.4222505 39.6375001,18.8258242 C36.8760954,17.2293979 33.4739046,17.2293979 30.7124999,18.8258242 C27.9510953,20.4222505 26.2499999,23.372568 26.25,26.5654206 L26.25,32.2429907 L23.961,32.2429907 Z M42.35,32.2429907 L28,32.2429907 L28,26.5654206 C28,22.5974869 31.2123569,19.3808411 35.175,19.3808411 C39.1376431,19.3808411 42.35,22.5974869 42.35,26.5654206 L42.35,32.2429907 Z M31.15,29.088785 L39.2,29.088785 L39.2,26.5654206 C39.2,24.3395066 37.3979461,22.5350467 35.175,22.5350467 C32.9520539,22.5350467 31.15,24.3395066 31.15,26.5654206 L31.15,29.088785 Z" id="Shape"></path>
        </g>
    </g>
</svg>