<?xml version="1.0" encoding="UTF-8"?>
<svg width="80px" height="80px" viewBox="0 0 80 80" version="1.1" xmlns="http://www.w3.org/2000/svg" xmlns:xlink="http://www.w3.org/1999/xlink">
    <!-- Generator: Sketch 59.1 (86144) - https://sketch.com -->
    <title>icon/csv/sql</title>
    <desc>Created with Sketch.</desc>
    <g id="icon/csv/sql" stroke="none" stroke-width="1" fill="none" fill-rule="evenodd">
        <g id="convert-csv-icons-02" transform="translate(12.000000, 2.000000)" fill="#176332" fill-rule="nonzero">
            <path d="M27.8216561,23.5648585 C12.2201274,23.5648585 0,18.3962264 0,11.7912736 C0,5.18632075 12.2201274,0 27.8216561,0 C43.4231847,0 55.6433121,5.17924528 55.6433121,11.7912736 C55.6433121,18.4033019 43.4231847,23.5648585 27.8216561,23.5648585 Z M27.8216561,3.18396226 C20.7699363,3.18396226 14.2461146,4.29481132 9.45936306,6.31132075 C4.85095541,8.25 3.21019108,10.4115566 3.21019108,11.7912736 C3.21019108,13.1709906 4.85095541,15.3290094 9.45936306,17.2606132 C14.2461146,19.2735849 20.7699363,20.3808962 27.8216561,20.3808962 C34.8733758,20.3808962 41.3971975,19.2735849 46.183949,17.2606132 C50.7923567,15.321934 52.433121,13.1639151 52.433121,11.7912736 C52.433121,10.4186321 50.7923567,8.25353774 46.183949,6.31132075 C41.3936306,4.29481132 34.8733758,3.18396226 27.8216561,3.18396226 Z" id="Shape"></path>
            <path d="M27.8216561,40.6839623 C12.4234395,40.6839623 0.203312102,35.5754717 0,29.0554245 L0,15.6721698 L2.69299363,18.1485849 C7.25859873,22.3089623 16.8856051,24.9056604 27.8216561,24.9056604 C38.757707,24.9056604 48.3918471,22.3054245 52.9574522,18.1273585 L55.6504459,15.6509434 L55.6504459,29.0271226 C55.4899363,35.5825472 43.3233121,40.6839623 27.8216561,40.6839623 Z M3.21019108,29.009434 C3.35286624,32.5471698 12.7587261,37.5 27.8216561,37.5 C34.8769427,37.5 41.3971975,36.3891509 46.1875159,34.3761792 C50.7887898,32.4516509 52.433121,30.2900943 52.433121,28.9139151 L52.433121,22.4787736 C46.7867516,25.9882075 37.7518471,28.0896226 27.8216561,28.0896226 C17.891465,28.0896226 8.85656051,25.9882075 3.21019108,22.4858491 L3.21019108,29.009434 Z" id="Shape"></path>
            <path d="M27.8216561,57.8242925 C12.4234395,57.8242925 0.203312102,52.7158019 0,46.1957547 L0,32.8018868 L2.69299363,35.2783019 C7.25859873,39.4528302 16.8856051,42.0459906 27.8145223,42.0459906 C38.7434395,42.0459906 48.3847134,39.4492925 52.9503185,35.2676887 L55.6433121,32.7912736 L55.6433121,46.1709906 C55.4899363,52.7122642 43.3233121,57.8242925 27.8216561,57.8242925 Z M3.21019108,46.1214623 C3.35286624,49.6839623 12.7587261,54.6403302 27.8216561,54.6403302 C34.8769427,54.6403302 41.3971975,53.5294811 46.1875159,51.5165094 C50.7887898,49.5813679 52.433121,47.4056604 52.433121,46.0436321 L52.433121,39.6226415 C46.7867516,43.1285377 37.7518471,45.2299528 27.8216561,45.2299528 C17.891465,45.2299528 8.85656051,43.1179245 3.21019108,39.6226415 L3.21019108,46.1214623 Z" id="Shape"></path>
            <path d="M27.8216561,75 C12.2201274,75 0,69.8278302 0,63.2264151 L0,49.9316038 L2.69299363,52.4080189 C7.25859873,56.5825472 16.8856051,59.1757075 27.8145223,59.1757075 C38.7434395,59.1757075 48.3847134,56.5790094 52.9503185,52.3974057 L55.6433121,49.9209906 L55.6433121,63.2334906 C55.6433121,69.8278302 43.4231847,75 27.8216561,75 Z M3.21019108,56.745283 L3.21019108,63.2264151 C3.21019108,64.5990566 4.85095541,66.7641509 9.45936306,68.6957547 C14.2461146,70.7087264 20.7699363,71.8160377 27.8216561,71.8160377 C34.8733758,71.8160377 41.3971975,70.7087264 46.183949,68.6957547 C50.7923567,66.7570755 52.433121,64.5990566 52.433121,63.2264151 L52.433121,56.7382075 C46.7867516,60.2441038 37.7518471,62.3455189 27.8216561,62.3455189 C17.891465,62.3455189 8.85656051,60.2476415 3.21019108,56.745283 Z" id="Shape"></path>
        </g>
    </g>
</svg>