<?xml version="1.0" encoding="UTF-8"?>
<svg width="80px" height="80px" viewBox="0 0 80 80" version="1.1" xmlns="http://www.w3.org/2000/svg" xmlns:xlink="http://www.w3.org/1999/xlink">
    <!-- Generator: Sketch 59.1 (86144) - https://sketch.com -->
    <title>icon/csv/support</title>
    <desc>Created with Sketch.</desc>
    <g id="icon/csv/support" stroke="none" stroke-width="1" fill="none" fill-rule="evenodd">
        <g id="convert-csv-icons-11" transform="translate(3.000000, 2.000000)" fill="#176332" fill-rule="nonzero">
            <path d="M51.6229665,58.3231132 C51.3735813,58.3205254 51.129302,58.2521839 50.9148325,58.125 C50.4539823,57.8520564 50.1815948,57.3471964 50.2066986,56.8125 L50.26689,55.5106132 C50.2812624,55.1005 50.4675818,54.7153309 50.7802871,54.4492925 C51.2766862,54.1147778 51.4690624,53.4775053 51.2405742,52.9245283 L51.2405742,52.9245283 C50.8819149,51.8648555 49.9447836,51.1061328 48.8329187,50.9752358 C48.2029404,50.8831697 47.7118807,50.3823855 47.6326316,49.7511792 C47.5405871,49.1214502 47.8691075,48.5050889 48.443445,48.2299528 L58.0244976,43.7441038 C60.4148153,42.6221818 63.265116,43.3330581 64.8473684,45.4457547 L66.2990431,47.3455189 C66.547118,47.6737236 66.6471867,48.0903308 66.5752153,48.495283 C66.501964,48.8975084 66.2630126,49.250504 65.9166507,49.4681604 L57.4190431,54.7075472 C55.5849761,55.8396226 54.0022967,56.9009434 52.5789474,57.9481132 L52.3488038,58.0966981 C52.1326696,58.2382098 51.8812892,58.3166245 51.6229665,58.3231132 Z M52.3594258,49.5070755 C53.1075455,50.1797134 53.6583308,51.0431183 53.9527273,52.004717 L53.9527273,52.004717 C54.0816305,52.4284123 54.1530807,52.8674674 54.1651675,53.3101415 C54.738756,52.9386792 55.3442105,52.553066 55.9744498,52.1639151 L63.0876555,47.759434 L62.6167464,47.1403302 C61.8281612,46.0836299 60.4035651,45.7285158 59.210622,46.2912736 L52.3594258,49.5070755 Z" id="Shape"></path>
            <path d="M39.262488,74.734682 C38.2055821,74.73637 37.1559062,74.5605724 36.1573206,74.2146226 L14.1166507,66.5872642 C12.5837163,66.0575403 10.9104885,66.1015361 9.40755981,66.7110849 L1.95090909,69.7393868 C1.22543419,70.0324624 0.399538819,69.6824209 0.10622013,68.9575472 C-0.18709856,68.2326734 0.163233249,67.4074624 0.888708134,67.1143868 L8.34889952,64.0860849 C10.4888543,63.2217154 12.8695432,63.1601427 15.0513876,63.9127358 L37.0920574,71.5400943 C39.0851898,72.2216597 41.2827712,71.9309866 43.0297608,70.754717 L54.3280383,63.1025943 C58.5106747,60.2651275 62.5298161,57.1942133 66.3663158,53.9044811 L70.278756,50.5507075 C70.8591804,50.0440288 70.9573106,49.1787918 70.5050762,48.5551889 C70.0528419,47.9315859 69.1993938,47.7552865 68.5367464,48.1485849 L57.4296651,54.870283 C54.81311,56.4551887 51.7645933,58.4080189 49.1020096,60.8278302 C47.0838278,62.6603774 44.8850718,63.4351415 42.576555,63.1238208 C38.7207656,62.6179245 35.7607656,59.1367925 34.6631579,57.6650943 L27.5464115,57.6650943 C26.7642283,57.6650943 26.1301435,57.031535 26.1301435,56.25 C26.1301435,55.468465 26.7642283,54.8349057 27.5464115,54.8349057 L50.5041148,54.8349057 C51.477799,54.2158019 51.3999043,53.6320755 51.2441148,53.1261792 C50.8747062,52.0806888 49.9392975,51.3384798 48.8364593,51.2158019 L22.178756,47.4056604 C20.6742251,47.1859772 19.1388438,47.3328342 17.7033493,47.8337264 L2.83253589,53.0943396 C2.35307452,53.2734524 1.81419543,53.1801239 1.42303561,52.8502281 C1.0318758,52.5203323 0.849315306,52.0052141 0.945527643,51.5028773 C1.04173998,51.0005405 1.40175067,50.5891686 1.88717703,50.4268868 L16.7827751,45.1662736 C18.6393862,44.5075856 20.6273677,44.304948 22.5788517,44.5754717 L49.2400957,48.3997642 C51.4296083,48.682643 53.2622978,50.1960072 53.9527273,52.2912736 C54.0818085,52.7028108 54.1532994,53.1302098 54.1651675,53.5613208 C54.7847847,53.1721698 55.3902392,52.8007075 55.9744498,52.446934 L67.0815311,45.7252358 C69.0118312,44.4814025 71.5787792,44.9644641 72.9239707,46.8246966 C74.2691622,48.684929 73.9221083,51.2717045 72.134067,52.7122642 L68.2393301,56.0695755 C64.3108914,59.4250215 60.1959864,62.5561831 55.9142584,65.4481132 L44.6124402,73.1002358 C43.0321346,74.165893 41.1690229,74.7350819 39.262488,74.734682 L39.262488,74.734682 Z M38.3914833,57.6650943 C39.5457416,58.8573113 41.1673684,60.1415094 42.9695694,60.375 C44.4354067,60.5695755 45.8021053,60.0424528 47.2183732,58.754717 C47.6220096,58.379717 48.0327273,58.0188679 48.4505263,57.6650943 L38.3914833,57.6650943 Z" id="Shape"></path>
            <path d="M55.6770335,42.4528302 L29.3379904,42.4528302 C27.7984727,42.4489273 26.5530653,41.1998023 26.5550216,39.6615566 L26.5550216,2.79127358 C26.5530653,1.25302784 27.7984727,0.00390293524 29.3379904,0 L46.0287081,0 L46.0287081,11.7134434 C46.0220526,11.9780573 46.1209167,12.2344671 46.3035351,12.4262235 C46.4861536,12.6179799 46.7375549,12.7293621 47.0023923,12.7358491 L58.4211369,12.7358491 L58.4211369,39.6615566 C58.4328442,41.1886917 57.2054013,42.4372723 55.6770335,42.4528302 Z M29.3379904,1.76886792 C28.7762023,1.77276266 28.3233946,2.22994089 28.3253525,2.79127358 L28.3253525,39.6615566 C28.3233946,40.2228893 28.7762023,40.6800675 29.3379904,40.6839623 L55.6770335,40.6839623 C55.9418709,40.6774753 56.1932722,40.5660931 56.3758907,40.3743367 C56.5585092,40.1825804 56.6573732,39.9261705 56.6507177,39.6615566 L56.6507177,14.504717 L47.0023923,14.504717 C45.4740245,14.4891591 44.2465817,13.2405785 44.2583732,11.7134434 L44.2583732,1.76886792 L29.3379904,1.76886792 Z" id="Shape"></path>
            <path d="M37.0885167,31.8396226 L36.4688995,31.8396226 C34.0859116,31.8008483 32.1846162,29.8409707 32.2200957,27.4599057 L32.2200957,24.8985849 C32.1846162,22.5175198 34.0859116,20.5576422 36.4688995,20.5188679 L37.0885167,20.5188679 C37.7290935,20.5266381 38.243176,21.0497775 38.239257,21.6898585 L38.239257,23.2606132 C38.2372904,23.8948041 37.7232336,24.408435 37.0885167,24.4103774 L36.4688995,24.4103774 C36.0778079,24.4103774 35.7607656,24.727157 35.7607656,25.1179245 L35.7607656,27.5943396 C35.7607656,27.9851071 36.0778079,28.3018868 36.4688995,28.3018868 L37.0885167,28.3018868 C37.7232336,28.3038292 38.2372904,28.8174601 38.239257,29.4516509 L38.239257,30.6686321 C38.243176,31.308713 37.7290935,31.8318525 37.0885167,31.8396226 L37.0885167,31.8396226 Z M36.4688995,21.5801887 C34.6733634,21.6207915 33.248686,23.1043915 33.2822967,24.8985849 L33.2822967,27.4599057 C33.248686,29.254099 34.6733634,30.737699 36.4688995,30.7783019 L37.0885167,30.7783019 C37.1148722,30.7756332 37.1390626,30.7625365 37.1556921,30.7419331 C37.1723215,30.7213296 37.1800067,30.6949334 37.1770335,30.6686321 L37.1770335,29.4516509 C37.1770335,29.402805 37.1374032,29.3632075 37.0885167,29.3632075 L36.4688995,29.3632075 C35.4911705,29.3632075 34.6985646,28.5712584 34.6985646,27.5943396 L34.6985646,25.1179245 C34.6985646,24.1410057 35.4911705,23.3490566 36.4688995,23.3490566 L37.0885167,23.3490566 C37.1374032,23.3490566 37.1770335,23.3094591 37.1770335,23.2606132 L37.1770335,21.6898585 C37.1800067,21.6635572 37.1723215,21.6371609 37.1556921,21.6165575 C37.1390626,21.595954 37.1148722,21.5828573 37.0885167,21.5801887 L36.4688995,21.5801887 Z" id="Shape"></path>
            <path d="M41.0151196,32.1934742 L40.0839234,32.1934742 C39.445285,32.1798513 38.937487,31.6535068 38.9473684,31.0153302 L38.9473684,29.4799528 C38.937487,28.8417762 39.445285,28.3154317 40.0839234,28.3018868 L41.0151196,28.3018868 C41.0703945,28.3025085 41.1254027,28.2941446 41.1779904,28.2771226 L39.627177,26.8620283 C38.8731102,26.1767506 38.4425788,25.2059684 38.4410526,24.1875 C38.4513281,23.2041802 38.8521568,22.2652194 39.5553494,21.5772058 C40.2585419,20.8891922 41.2064878,20.5084927 42.190622,20.5188679 L43.1218182,20.5188679 C43.7604566,20.5324128 44.2682546,21.0587574 44.2583732,21.696934 L44.2583732,23.2323113 C44.2682546,23.8704879 43.7604566,24.3968325 43.1218182,24.4103774 L42.190622,24.4103774 C42.1353471,24.4097556 42.0803389,24.4181195 42.0277512,24.4351415 L43.5785646,25.8502358 C44.3238764,26.5209238 44.7561217,27.4713445 44.7715717,28.4734191 C44.7870217,29.4754937 44.3842817,30.4387669 43.66,31.1320755 C42.9517117,31.8186099 42.0019041,32.1997427 41.0151196,32.1934742 L41.0151196,32.1934742 Z M40.0839234,29.3632075 C40.0555981,29.3632075 40.0095694,29.4091981 40.0095694,29.4799528 L40.0095694,31.0153302 C40.0095694,31.0860849 40.0555981,31.1321022 40.0839234,31.1321022 L41.0151196,31.1321022 C41.7261809,31.1352248 42.4101145,30.8595918 42.92,30.3643868 C43.4294686,29.8754449 43.7126999,29.1969701 43.7019572,28.4912243 C43.6912145,27.7854784 43.3874639,27.1159237 42.8633493,26.6426887 L41.2027751,25.1179245 C40.9958924,24.9403162 40.8747911,24.6828675 40.8699522,24.4103774 C40.8699522,23.8301887 41.471866,23.3490566 42.190622,23.3490566 L43.1218182,23.3490566 C43.1501435,23.3490566 43.1961722,23.303066 43.1961722,23.2323113 L43.1961722,21.696934 C43.1961722,21.6261792 43.1501435,21.5801887 43.1218182,21.5801887 L42.190622,21.5801887 C40.7313724,21.5604681 39.5303983,22.722503 39.5032536,24.1804245 C39.5054142,24.8998633 39.809886,25.5853198 40.3423923,26.0695755 L42.0029665,27.5943396 C42.2098493,27.7719479 42.3309505,28.0293966 42.3357895,28.3018868 C42.3357895,28.8820755 41.7338756,29.3632075 41.0151196,29.3632075 L40.0839234,29.3632075 Z" id="Shape"></path>
            <path d="M48.861244,32.1120291 C48.3647083,32.1097657 47.8919478,31.8992535 47.5582775,31.5318396 C45.6405622,29.3763118 44.5909532,26.5868168 44.6124402,23.7028302 L44.6124402,22.0400943 C44.6085109,21.4006014 45.1231492,20.8784786 45.7631579,20.8726415 L47.0023923,20.8726415 C47.642401,20.8784786 48.1570394,21.4006014 48.15311,22.0400943 L48.15311,23.7028302 C48.1551774,24.8621483 48.3962312,26.0086135 48.861244,27.0707547 C49.3262569,26.0086135 49.5673106,24.8621483 49.569378,23.7028302 L49.569378,22.0400943 C49.5654487,21.4006014 50.080087,20.8784786 50.7200957,20.8726415 L51.9593301,20.8726415 C52.5993388,20.8784786 53.1139772,21.4006014 53.1100478,22.0400943 L53.1100478,23.7028302 C53.1341712,26.5904669 52.0843899,29.3842021 50.1642105,31.5424528 C49.8286619,31.9059409 49.3561536,32.112492 48.861244,32.1120291 L48.861244,32.1120291 Z M45.7631579,21.9339623 C45.7371012,21.9357269 45.7129014,21.9480662 45.6961821,21.9681128 C45.6794627,21.9881594 45.6716795,22.0141678 45.6746411,22.0400943 L45.6746411,23.7028302 C45.6489643,26.3271645 46.6019076,28.8670816 48.3478469,30.8278302 C48.4815383,30.9684416 48.6671364,31.048055 48.861244,31.048055 C49.0553517,31.048055 49.2409497,30.9684416 49.3746411,30.8278302 C51.1205804,28.8670816 52.0735237,26.3271645 52.0478469,23.7028302 L52.0478469,22.0400943 C52.0508085,22.0141678 52.0430253,21.9881594 52.026306,21.9681128 C52.0095866,21.9480662 51.9853868,21.9357269 51.9593301,21.9339623 L50.7200957,21.9339623 C50.694039,21.9357269 50.6698392,21.9480662 50.6531199,21.9681128 C50.6364005,21.9881594 50.6286173,22.0141678 50.6315789,22.0400943 L50.6315789,23.7028302 C50.6367734,25.3912648 50.1827379,27.0493832 49.3179904,28.5 L48.861244,29.2464623 L48.4044976,28.4893868 C47.5416047,27.0418628 47.0876382,25.3876642 47.0909091,23.7028302 L47.0909091,22.0400943 C47.0938707,22.0141678 47.0860875,21.9881594 47.0693682,21.9681128 C47.0526488,21.9480662 47.028449,21.9357269 47.0023923,21.9339623 L45.7631579,21.9339623 Z" id="Shape"></path>
            <path d="M58.4210707,12.0283019 L46.7368421,12.0283019 L46.7368421,-2.58641953e-05 L48.0929187,-2.58641953e-05 C48.8311078,-0.00323688387 49.5380396,0.297472009 50.0473684,0.831367925 L57.6314833,8.68514151 C58.1405531,9.2147632 58.4236752,9.92134773 58.4210707,10.6556604 L58.4210707,12.0283019 Z M48.507177,10.259434 L56.5763636,10.259434 C56.5288034,10.1274451 56.4540134,10.0069159 56.3568421,9.90566038 L56.3568421,9.90566038 L48.7727273,2.05896226 C48.6961886,1.97919033 48.606329,1.91334794 48.507177,1.86438679 L48.507177,10.259434 Z" id="Shape"></path>
        </g>
    </g>
</svg>