<?xml version="1.0" encoding="UTF-8"?>
<svg width="80px" height="80px" viewBox="0 0 80 80" version="1.1" xmlns="http://www.w3.org/2000/svg" xmlns:xlink="http://www.w3.org/1999/xlink">
    <!-- Generator: Sketch 59.1 (86144) - https://sketch.com -->
    <title>icon/csv/xcel</title>
    <desc>Created with Sketch.</desc>
    <g id="icon/csv/xcel" stroke="none" stroke-width="1" fill="none" fill-rule="evenodd">
        <g id="convert-csv-icons-07" transform="translate(11.000000, 2.000000)" fill="#176332" fill-rule="nonzero">
            <path d="M52.0388889,75.0000014 L4.92592593,75.0000014 C2.20541216,75.0000014 0,72.792953 0,70.0704225 L0,5.28169014 C0,2.55915968 2.20541216,0.352112676 4.92592593,0.352112676 L34.4814815,0.352112676 L34.4814815,20.7746479 C34.496891,21.7542673 35.2969189,22.5391899 36.2759259,22.5352113 L57,22.5352113 L57,70.0704225 C56.9825816,72.799445 54.7659447,75.0019926 52.0388889,75.0000014 Z M4.92592593,3.52112676 C3.95431387,3.52112676 3.16666667,4.30935783 3.16666667,5.28169014 L3.16666667,70.0704225 C3.16666667,71.0427548 3.95431387,71.831001 4.92592593,71.831001 L52.0388889,71.831001 C53.0178959,71.8349645 53.8179238,71.050042 53.8333333,70.0704225 L53.8333333,25.7042254 L36.2759259,25.7042254 C33.5488701,25.7062179 31.3322332,23.5036703 31.3148148,20.7746479 L31.3148148,3.52112676 L4.92592593,3.52112676 Z M22.1666667,66.197184 L17.0014815,66.197184 C15.816929,66.1980406 14.7248178,65.5568152 14.1476883,64.5215984 C13.5705587,63.4863816 13.5989402,62.2195592 14.2218519,61.2112676 L21.2307407,48.8591549 L14.2288889,36.6866197 C13.6013186,35.6935225 13.5582686,34.4387642 14.1162963,33.4049296 C14.6908161,32.3468969 15.7982166,31.6887215 17.0014815,31.6901295 L21.9696296,31.6901295 C23.165061,31.6869932 24.266002,32.3399363 24.8372222,33.3908451 C26.3924074,36.2852113 27.1031481,37.5176056 27.6203704,38.415493 C27.9722222,39.0316901 28.2361111,39.471831 28.587963,40.1514085 C29.362037,38.7112676 30.5161111,36.5598592 32.2225926,33.3943662 C32.7928795,32.3420964 33.8940025,31.6876932 35.0901852,31.6901295 L39.9598148,31.6901295 C41.1256978,31.7003604 42.1957996,32.3379086 42.7604769,33.3587269 C43.3251542,34.3795453 43.2969521,35.6255338 42.6866667,36.6197183 L35.7622222,48.6725352 L42.6901852,60.8697183 C43.3185373,61.8734881 43.3514505,63.1398727 42.7760886,64.1749734 C42.2007266,65.210074 41.1082107,65.8499596 39.9246296,65.8450704 L34.9494444,65.8450704 C34.3407407,65.7852113 32.8383333,65.5246479 32.2225926,64.3626761 C30.8151852,61.7676056 29.4957407,59.2922535 28.5457407,57.5035211 C28.222037,58.1021127 27.842037,58.8239437 27.3001852,59.7676056 C26.6703704,60.9084507 25.8540741,62.3838028 24.7562963,64.3838028 C24.2461111,65.3309859 22.997037,65.8978873 22.4657407,66.0985915 L22.1666667,66.197184 Z M17.0014815,34.8591549 C16.9598109,34.85409 16.9197584,34.8769942 16.902963,34.915493 C16.8847815,34.9394224 16.8847815,34.9725494 16.902963,34.9964789 L16.9487037,35.0704225 L24.8759259,48.8485915 L16.9135185,62.8802817 C16.8912265,62.9093597 16.8912265,62.9497952 16.9135185,62.9788732 C16.9300215,63.0134979 16.9670304,63.0334405 17.005,63.028169 L21.5790741,63.028169 C21.7413021,62.9525211 21.8966949,62.8629862 22.0435185,62.7605634 C23.0990741,60.7957746 23.9188889,59.3485915 24.5416667,58.2253521 C26.0511111,55.5 26.4557407,54.7676056 27.0574074,53.3802817 L28.3803704,50.3380282 L29.9074074,53.2746479 C29.9285185,53.3204225 32.2261111,57.7147887 34.8790741,62.6021127 C34.9851076,62.6343324 35.0932762,62.6590414 35.2027778,62.6760563 L39.9281481,62.6760563 C39.9597122,62.6815045 39.9907025,62.6637826 40.002037,62.6338028 C40.0225901,62.6120772 40.0225901,62.5780637 40.002037,62.556338 L39.9598148,62.4823944 L32.1205556,48.6795775 L40.002037,34.9647887 C40.0204614,34.943589 40.0204614,34.9120448 40.002037,34.8908451 C39.9844444,34.8591549 39.9703704,34.8591549 39.9422222,34.8591549 L35.0901852,34.8591549 C35.0577727,34.8584575 35.0272633,34.8744282 35.0092593,34.9014085 C30.8327778,42.6478873 29.9425926,44.3450704 29.932037,44.3626761 L28.4648148,47.1795775 L27.0925926,44.3098592 C26.4259453,42.8376822 25.6849268,41.4003804 24.8724074,40.0035211 C24.3411111,39.084507 23.6162963,37.8309859 22.0575926,34.8978873 C22.0387904,34.8722416 22.0084181,34.8577049 21.9766667,34.8591549 L17.0014815,34.8591549 Z M57.0000002,21.4788732 L35.8888889,21.4788732 L35.8888889,0.352009016 L38.3272222,0.352009016 C39.6463849,0.343557437 40.9138547,0.864873693 41.8457407,1.79929577 L55.567963,15.5492958 C56.4857913,16.4783801 57.0003759,17.7322655 57.0000002,19.0387324 L57.0000002,21.4788732 Z M39.0555556,18.3098592 L53.675,18.3098592 C53.5899224,18.1164239 53.4707371,17.9398989 53.3231481,17.7887324 L39.6009259,4.03873239 C39.4452813,3.89010907 39.2641044,3.77082537 39.0661111,3.68661972 L39.0555556,18.3098592 Z" id="Shape"></path>
        </g>
    </g>
</svg>