<svg xmlns="http://www.w3.org/2000/svg" width="466.79" height="51.12" viewBox="0 0 466.79 51.12"><title>convert-csv-logo_1</title><path d="M84.88,41.08a15.93,15.93,0,0,1-5,1.76,16.82,16.82,0,0,1-11.16-1.78,12.78,12.78,0,0,1-6.43-8l-.91-3.67-8.57,1.55.91,3.67A20.29,20.29,0,0,0,64,47.35,26.31,26.31,0,0,0,76.8,50.62a27.38,27.38,0,0,0,4.93-.44,25.27,25.27,0,0,0,9.11-3.5l3.73,3.51,6.28-16.86-20.2,3.78Z" fill="#09f" stroke="#09f" stroke-miterlimit="10"/><path d="M68.82,19.16a16.07,16.07,0,0,1,5-1.75,16.82,16.82,0,0,1,11.16,1.78,12.81,12.81,0,0,1,6.43,8l.9,3.67,8.58-1.55-.91-3.67A20.29,20.29,0,0,0,89.72,12.9,26.35,26.35,0,0,0,76.9,9.62a27.51,27.51,0,0,0-4.94.45,25.3,25.3,0,0,0-9.1,3.5l-3.73-3.51L52.85,26.92l20.2-3.78Z" fill="#09f" stroke="#09f" stroke-miterlimit="10"/><path d="M33.12,10.66c-12.74,0-19.22,5.76-19.22,14.83s6.33,14.91,20,14.91a56.08,56.08,0,0,0,13-1.66v10.8a70.81,70.81,0,0,1-15.41,1.58C9.94,51.12,0,40.83,0,25.63,0,7.13,15.63,0,30.31,0A68,68,0,0,1,45.72,1.58v11A51.61,51.61,0,0,0,33.12,10.66Z" fill="#f7ffff"/><path d="M137.7,28.59c0-4.25-1.65-5.76-6.84-5.76a15.6,15.6,0,0,0-7.92,1.94V51.12H110.2V14.19h11.66v4.39h.22a23.3,23.3,0,0,1,14.76-5.26c9.21,0,13.61,4.83,13.61,14.47V51.12H137.7Z" fill="#f7ffff"/><path d="M156.89,14.19H169.7l9.65,24.69h.15l9.57-24.69h12.1l-15,36.93H172Z" fill="#f7ffff"/><path d="M243.83,30.24v4.9H218.48c.08,4.61,3.68,6.77,11,6.77,3.6,0,7.06-.72,13-2.59v9.07a45.47,45.47,0,0,1-15.05,2.73c-13.89,0-22-7.2-22-19.58,0-11.67,7.92-19.37,20-19.37C237.06,12.17,243.83,18.87,243.83,30.24Zm-25.35-2.95h13.76c0-3.53-2.6-6-6.41-6C221.36,21.31,218.7,23.55,218.48,27.29Z" fill="#f7ffff"/><path d="M267.6,28.3V51.12H254.86V14.19h11.66V21h.29c5.9-6.05,9.43-7.64,15.55-7.64V25.06C276.89,25.06,271.13,26.28,267.6,28.3Z" fill="#f7ffff"/><path d="M313.8,41.69a22.73,22.73,0,0,0,6.26-1.08V49.9a52.47,52.47,0,0,1-9.94,1.22C301,51.12,296,46.73,296,38.52V21.75h-6.77V13H296V2.59h12.75V13h12.38v8.72H308.76V38.6C308.76,40.76,310.2,41.69,313.8,41.69Z" fill="#f7ffff"/><path d="M368.61,48.69c-2.17,1.09-7.41,2.43-14.11,2.43-18.28,0-27.85-10.72-27.85-24.73,0-16.15,12.42-26.1,28.82-26.1C362,.29,367,1.56,369.2,2.77l-2.45,9a27.46,27.46,0,0,0-10.83-2.13c-9.75,0-17.2,5.55-17.2,16,0,9.22,6.18,15.93,17.3,15.93a29.6,29.6,0,0,0,10.71-1.87Z" fill="#b2bfca"/><path d="M380.16,38.49a30.29,30.29,0,0,0,13.55,3.4c5.24,0,8.06-2,8.06-5.17,0-2.79-2.35-4.53-8.73-6.36-8.58-2.45-14.8-6.61-14.8-14.52,0-8.36,7.54-14.55,19.37-14.55a33.27,33.27,0,0,1,14,2.65l-2.73,9a27.84,27.84,0,0,0-11.46-2.5c-5,0-7.41,2.11-7.41,4.54,0,3.12,3.09,4.41,9.75,6.52,9.31,3,13.84,7.24,13.84,14.62,0,7.77-6.09,15-20.75,15-6,0-12.11-1.65-15.18-3.34Z" fill="#b2bfca"/><path d="M435.17,51.12,418,1.29h12.55l6.68,21c2,6.11,3.62,11.61,5,18h.14c1.43-6,3.25-11.91,5.17-17.64l7.11-21.27h12.1L448.73,51.12Z" fill="#b2bfca"/></svg>